<?xml version="1.0" encoding="utf-8"?>
<!-- Generator: Adobe Illustrator 16.0.4, SVG Export Plug-In . SVG Version: 6.00 Build 0)  -->
<!DOCTYPE svg PUBLIC "-//W3C//DTD SVG 1.1//EN" "http://www.w3.org/Graphics/SVG/1.1/DTD/svg11.dtd">
<svg version="1.1" id="圖層_1" xmlns="http://www.w3.org/2000/svg" xmlns:xlink="http://www.w3.org/1999/xlink" x="0px" y="0px"
	 width="32.436px" height="32.287px" viewBox="56.576 51.805 32.436 32.287" enable-background="new 56.576 51.805 32.436 32.287"
	 xml:space="preserve">
<circle fill="#FFFFFF" cx="72.793" cy="68.022" r="16.217"/>
<g>
	<path fill="#2CB0AA" d="M72.794,51.805c-8.957,0-16.218,7.261-16.218,16.216c0,8.958,7.261,16.217,16.218,16.217
		c8.956,0,16.218-7.26,16.218-16.217C89.011,59.066,81.75,51.805,72.794,51.805z M82.17,67.498c0,0-2.771,5.884-9.052,9.193
		c0,0-0.54,0.445-0.992,0c-0.445-0.448-9.33-6.587-9.398-11.584c-0.063-4.997,4.059-6.235,6.018-5.707
		c1.956,0.528,3.217,1.524,4.117,2.816c0,0,2.587-4.889,7.217-2.245C84.711,62.619,82.17,67.498,82.17,67.498z"/>
</g>
</svg>
