<?xml version="1.0" encoding="utf-8"?>
<!-- Generator: Adobe Illustrator 16.0.4, SVG Export Plug-In . SVG Version: 6.00 Build 0)  -->
<!DOCTYPE svg PUBLIC "-//W3C//DTD SVG 1.1//EN" "http://www.w3.org/Graphics/SVG/1.1/DTD/svg11.dtd">
<svg version="1.1" id="右側-上傳版型內容" xmlns="http://www.w3.org/2000/svg" xmlns:xlink="http://www.w3.org/1999/xlink"
	 x="0px" y="0px" width="399.367px" height="399.367px" viewBox="0 0 399.367 399.367" enable-background="new 0 0 399.367 399.367"
	 xml:space="preserve">
<path fill="#FFFFFF" d="M199.754,54.397c-6.382-0.047-12.575,2.346-17.361,7.085c-0.423,0.422-0.517,0.892-0.799,1.455
	l-79.672,79.483c-9.5,9.501-9.5,24.821,0,34.299c9.526,9.384,24.774,9.384,34.347,0l39.038-39.179v118.194
	c0,13.279,10.84,24.117,24.211,24.117c13.419,0,24.259-10.838,24.259-24.164V137.071l39.602,39.602
	c9.502,9.431,24.729,9.431,34.205,0c9.502-9.431,9.502-24.728,0-34.299L218.005,62.89c-0.325-0.493-0.42-1.032-0.844-1.455
	C212.328,56.649,206.041,54.349,199.754,54.397z"/>
<path fill="#FFFFFF" d="M364.75,198.256c-7.318,0-13.254,5.936-13.254,13.279v94.027c0,2.09-3.262,4.506-7.461,4.506H55.377
	c-4.223,0-7.414-2.394-7.414-4.506v-94.027c0-7.344-5.982-13.279-13.326-13.279c-7.32,0-13.277,5.936-13.277,13.279v94.027
	c0,17.129,15.225,31.062,33.971,31.062h288.704c18.723,0,33.971-13.934,33.971-31.062v-94.027
	C378.029,204.191,372.07,198.256,364.75,198.256z"/>
</svg>
