<?xml version="1.0" encoding="utf-8"?>
<!-- Generator: Adobe Illustrator 16.0.4, SVG Export Plug-In . SVG Version: 6.00 Build 0)  -->
<!DOCTYPE svg PUBLIC "-//W3C//DTD SVG 1.1//EN" "http://www.w3.org/Graphics/SVG/1.1/DTD/svg11.dtd">
<svg version="1.1" id="右側-上傳版型內容" xmlns="http://www.w3.org/2000/svg" xmlns:xlink="http://www.w3.org/1999/xlink"
	 x="0px" y="0px" width="366.367px" height="366.367px" viewBox="0 0 366.367 366.367" enable-background="new 0 0 366.367 366.367"
	 xml:space="preserve">
<path fill="#EE5B8D" d="M283.75,168.176c-16.088,42.936-62.611,65.452-105.879,52.454l-51.065,137.276l-22.832-5.646l52.542-141.227
	c-34.056-21.412-49.561-64.473-34.875-103.63c16.774-44.773,66.673-67.462,111.445-50.672
	C277.841,73.504,300.531,123.411,283.75,168.176z M176.932,93.71c-10.309,0-18.676,8.352-18.676,18.675
	c0,10.324,8.36,18.684,18.676,18.684c10.309,0,18.676-8.36,18.676-18.684C195.607,102.062,187.24,93.71,176.932,93.71z"/>
</svg>
