<?xml version="1.0" encoding="utf-8"?>
<!-- Generator: Adobe Illustrator 16.0.4, SVG Export Plug-In . SVG Version: 6.00 Build 0)  -->
<!DOCTYPE svg PUBLIC "-//W3C//DTD SVG 1.1//EN" "http://www.w3.org/Graphics/SVG/1.1/DTD/svg11.dtd">
<svg version="1.1" id="圖層_1" xmlns="http://www.w3.org/2000/svg" xmlns:xlink="http://www.w3.org/1999/xlink" x="0px" y="0px"
	 width="32.436px" height="32.287px" viewBox="0 0 32.436 32.287" enable-background="new 0 0 32.436 32.287" xml:space="preserve">
<circle fill="#FFFFFF" cx="16.218" cy="16.144" r="16.217"/>
<g>
	<circle fill="#2CB0AA" cx="16.18" cy="16.107" r="16.18"/>
	<g>
		<path fill="#FFFFFF" d="M16.447,19.105c0,0.424,0.155,0.791,0.465,1.101c0.311,0.311,0.677,0.465,1.102,0.465h3.132v2.912
			c-0.555,0.408-1.252,0.612-2.092,0.612H8.359c-0.987,0-1.778-0.281-2.374-0.845c-0.595-0.562-0.893-1.338-0.893-2.324
			c0-0.433,0.014-0.854,0.043-1.267c0.028-0.412,0.085-0.856,0.171-1.334c0.085-0.477,0.193-0.919,0.324-1.327
			c0.13-0.408,0.306-0.806,0.526-1.193c0.22-0.387,0.473-0.717,0.759-0.991c0.285-0.273,0.634-0.492,1.046-0.655
			s0.867-0.245,1.364-0.245c0.155,0,0.314,0.069,0.477,0.208c0.645,0.498,1.274,0.871,1.891,1.12
			c0.616,0.249,1.287,0.373,2.013,0.373s1.397-0.124,2.013-0.373s1.246-0.622,1.89-1.12c0.163-0.139,0.322-0.208,0.478-0.208
			c1.077,0,1.962,0.392,2.655,1.175h-2.729c-0.425,0-0.791,0.155-1.102,0.465c-0.31,0.31-0.465,0.677-0.465,1.101V19.105z
			 M17.028,13.422c-0.917,0.917-2.025,1.376-3.322,1.376s-2.404-0.459-3.322-1.376c-0.918-0.918-1.376-2.025-1.376-3.322
			s0.458-2.404,1.376-3.322c0.917-0.918,2.025-1.376,3.322-1.376s2.404,0.458,3.322,1.376c0.918,0.917,1.377,2.025,1.377,3.322
			S17.946,12.504,17.028,13.422z M25.452,16.364h4.307c0.105,0,0.197,0.039,0.275,0.116c0.077,0.077,0.116,0.17,0.116,0.275v2.35
			c0,0.105-0.039,0.197-0.116,0.274c-0.078,0.078-0.17,0.117-0.275,0.117h-4.307v4.307c0,0.105-0.039,0.197-0.116,0.275
			c-0.078,0.077-0.17,0.116-0.275,0.116h-2.35c-0.106,0-0.198-0.039-0.275-0.116c-0.077-0.078-0.116-0.17-0.116-0.275v-4.307h-4.307
			c-0.106,0-0.198-0.039-0.275-0.117c-0.078-0.077-0.116-0.169-0.116-0.274v-2.35c0-0.105,0.038-0.198,0.116-0.275
			c0.077-0.077,0.169-0.116,0.275-0.116h4.307v-4.307c0-0.106,0.039-0.198,0.116-0.275s0.169-0.116,0.275-0.116h2.35
			c0.105,0,0.197,0.039,0.275,0.116c0.077,0.078,0.116,0.169,0.116,0.275V16.364z"/>
	</g>
</g>
</svg>
