<?xml version="1.0" encoding="utf-8"?>
<!-- Generator: Adobe Illustrator 16.0.4, SVG Export Plug-In . SVG Version: 6.00 Build 0)  -->
<!DOCTYPE svg PUBLIC "-//W3C//DTD SVG 1.1//EN" "http://www.w3.org/Graphics/SVG/1.1/DTD/svg11.dtd">
<svg version="1.1" id="圖層_1" xmlns="http://www.w3.org/2000/svg" xmlns:xlink="http://www.w3.org/1999/xlink" x="0px" y="0px"
	 width="32.436px" height="32.287px" viewBox="0 0 32.436 32.287" enable-background="new 0 0 32.436 32.287" xml:space="preserve">
<circle fill="#FFFFFF" cx="16.218" cy="16.144" r="16.217"/>
<g>
	<circle fill="#FF9C64" cx="16.18" cy="16.107" r="16.18"/>
</g>
<path fill="#FFFFFF" d="M24.607,10.121h-2.725c1.125-0.888,2.227-1.665,2.473-2.692c0.133-0.552,0.137-1.468-1.336-2.219
	c-0.436-0.221-0.896-0.378-1.373-0.378c-2.434,0-4.658,2.949-5.652,4.487c-0.989-1.519-3.218-4.452-5.659-4.452
	c-0.476,0-0.936,0.073-1.372,0.294C7.491,5.913,7.494,6.895,7.626,7.448c0.246,1.022,1.34,1.785,2.459,2.673H8.457
	c-1.364,0-2.045,0.636-2.045,1.934v2.854v0.805v9.104c0,1.286,0.762,2.177,2.045,2.177h6.918h0.806h8.426
	c1.275,0,1.342-0.811,1.342-2.177v-9.104v-0.805v-2.854C25.948,10.76,25.876,10.121,24.607,10.121z M21.646,6.044
	c0.303,0,0.584,0.059,0.865,0.2c0.908,0.462,0.799,0.934,0.76,1.102c-0.303,1.26-2.908,2.775-3.607,2.775h-2.744
	C17.935,9.233,19.872,6.044,21.646,6.044z M8.713,7.341C8.671,7.172,8.561,6.706,9.47,6.244c0.28-0.142,0.562-0.195,0.864-0.195
	c1.771,0,3.71,3.185,4.727,4.072h-2.744C11.62,10.121,9.014,8.602,8.713,7.341z M7.3,12.055c0-0.588,0.5-1.045,1.157-1.045h3.86
	h2.692h0.283v3.996H7.3V12.055z M15.293,26.55H8.457c-0.671,0-1.157-1.062-1.157-1.732v-8.924h7.993V26.55z M24.607,26.55H16.18
	V15.894h8.881v8.924C25.062,25.495,25.175,26.55,24.607,26.55z M16.18,15.006V11.01h0.793h2.689h4.943
	c0.654,0,0.455,0.36,0.455,1.045v2.951H16.18z"/>
</svg>
