<?xml version="1.0" encoding="utf-8"?>
<!-- Generator: Adobe Illustrator 16.0.4, SVG Export Plug-In . SVG Version: 6.00 Build 0)  -->
<!DOCTYPE svg PUBLIC "-//W3C//DTD SVG 1.1//EN" "http://www.w3.org/Graphics/SVG/1.1/DTD/svg11.dtd">
<svg version="1.1" id="分離模式" xmlns="http://www.w3.org/2000/svg" xmlns:xlink="http://www.w3.org/1999/xlink" x="0px"
	 y="0px" width="141.73px" height="141.73px" viewBox="0 0 141.73 141.73" enable-background="new 0 0 141.73 141.73"
	 xml:space="preserve">
<g>
	<g>
		<path fill="#FFFFFF" d="M70.081,88.461H52.904V71.282c0-2.158-1.747-3.907-3.906-3.907c-2.154,0-3.903,1.749-3.903,3.907v17.179
			H27.913c-2.159,0-3.905,1.748-3.905,3.907c0,2.151,1.746,3.9,3.905,3.9h17.182v17.181c0,2.154,1.746,3.907,3.903,3.907
			s3.906-1.753,3.906-3.907V96.268h17.177c2.156,0,3.904-1.749,3.904-3.9C73.986,90.209,72.237,88.461,70.081,88.461z M123.428,1
			H63.59c-8.904,0-16.153,7.289-16.153,16.25v5.617h-5.713c-8.906,0-16.152,7.244-16.152,16.155v7.076h-7.24
			c-8.925,0-16.186,7.264-16.186,16.189v59.961c0,8.93,7.261,16.194,16.186,16.194h59.964c8.927,0,16.191-7.267,16.191-16.194
			v-7.234h7.073c8.909,0,16.154-7.247,16.154-16.153v-5.164h5.715c8.909,0,16.156-7.293,16.156-16.257V17.249
			C139.585,8.288,132.338,1,123.428,1z M86.093,122.245c0,4.302-3.498,7.8-7.796,7.8H18.332c-4.295,0-7.792-3.5-7.792-7.8V62.284
			c0-4.295,3.497-7.793,7.792-7.793h59.964c4.298,0,7.796,3.498,7.796,7.793V122.245z M109.342,98.859
			c0,4.291-3.486,7.778-7.777,7.778h-7.077V62.284c0-8.925-7.266-16.189-16.192-16.189H33.947v-7.079
			c0-4.288,1.928-7.779,6.219-7.779h61.399c4.291,0,7.779,3.491,7.779,7.779v59.843H109.342z M131.209,77.431
			c0,4.312-3.49,7.828-7.78,7.828h-5.714v-46.24c0-8.911-7.246-16.155-16.155-16.155H55.81v-5.611c0-4.313,1.929-7.82,6.217-7.82
			h61.401c4.29,0,7.78,3.507,7.78,7.82V77.431z"/>
	</g>
</g>
</svg>
