<?xml version="1.0" encoding="utf-8"?>
<!-- Generator: Adobe Illustrator 16.0.4, SVG Export Plug-In . SVG Version: 6.00 Build 0)  -->
<!DOCTYPE svg PUBLIC "-//W3C//DTD SVG 1.1//EN" "http://www.w3.org/Graphics/SVG/1.1/DTD/svg11.dtd">
<svg version="1.1" id="分離模式" xmlns="http://www.w3.org/2000/svg" xmlns:xlink="http://www.w3.org/1999/xlink" x="0px"
	 y="0px" width="141.73px" height="141.73px" viewBox="0 0 141.73 141.73" enable-background="new 0 0 141.73 141.73"
	 xml:space="preserve">
<g>
	<g>
		<path fill="#FFFFFF" d="M124.122,1.239H63.494c-9.022,0-16.366,7.385-16.366,16.464v5.691H41.34
			c-9.023,0-16.365,7.34-16.365,16.368v7.169H17.64C8.597,46.93,1.24,54.29,1.24,63.333v60.752c0,9.047,7.356,16.408,16.399,16.408
			h60.754c9.045,0,16.405-7.362,16.405-16.408v-7.33h7.166c9.026,0,16.368-7.343,16.368-16.366v-5.231h5.789
			c9.026,0,16.369-7.39,16.369-16.472V17.703C140.491,8.624,133.148,1.239,124.122,1.239z M86.294,124.083
			c0,4.358-3.544,7.902-7.899,7.902H17.64c-4.352,0-7.895-3.546-7.895-7.902V63.331c0-4.352,3.542-7.896,7.895-7.896h60.754
			c4.355,0,7.899,3.544,7.899,7.896V124.083z M109.848,100.388c0,4.348-3.532,7.882-7.88,7.882h-7.17V63.331
			c0-9.043-7.361-16.402-16.405-16.402H33.46v-7.172c0-4.345,1.954-7.881,6.301-7.881h62.209c4.348,0,7.881,3.537,7.881,7.881
			v60.631H109.848z M132.005,78.678c0,4.37-3.537,7.932-7.883,7.932h-5.79V39.76c0-9.028-7.341-16.368-16.367-16.368H55.612v-5.685
			c0-4.37,1.955-7.923,6.3-7.923h62.21c4.346,0,7.883,3.553,7.883,7.923V78.678z"/>
	</g>
</g>
</svg>
