<?xml version="1.0" encoding="utf-8"?>
<!-- Generator: Adobe Illustrator 16.0.0, SVG Export Plug-In . SVG Version: 6.00 Build 0)  -->
<!DOCTYPE svg PUBLIC "-//W3C//DTD SVG 1.1//EN" "http://www.w3.org/Graphics/SVG/1.1/DTD/svg11.dtd">
<svg version="1.1" xmlns="http://www.w3.org/2000/svg" xmlns:xlink="http://www.w3.org/1999/xlink" x="0px" y="0px" width="40px"
	 height="40.001px" viewBox="0 0 40 40.001" enable-background="new 0 0 40 40.001" xml:space="preserve">
<g id="HOME">
	<path display="none" fill="#F05B85" d="M20,0C8.954,0,0,8.955,0,20.001c0,11.045,8.954,20,20,20c11.045,0,20-8.955,20-20
		C40,8.955,31.045,0,20,0z"/>
	<path display="none" fill="#F05B89" d="M20,0C8.954,0,0,8.955,0,20.001c0,11.045,8.954,20,20,20c11.045,0,20-8.955,20-20
		C40,8.955,31.045,0,20,0z"/>
	<path fill="#F7A298" d="M20,0C8.954,0,0,8.955,0,20.001c0,11.045,8.954,20,20,20c11.045,0,20-8.955,20-20C40,8.955,31.045,0,20,0z"
		/>
	<g id="HOME_copy">
		<g>
			<g>
				<g>
					<g>
						<path fill="none" stroke="#FFFFFF" stroke-linecap="round" stroke-linejoin="round" stroke-miterlimit="10" d="M29.501,18.859
							c0-0.779-0.638-1.417-1.417-1.417H11.917c-0.78,0-1.417,0.638-1.417,1.417v11.709c0,0.779,0.638,1.417,1.417,1.417h3.83
							c0.78,0,2.055,0,2.835,0h2.837c0.78,0,2.055,0,2.835,0h3.83c0.78,0,1.417-0.638,1.417-1.417V18.859z"/>
					</g>
					<g display="none">
						
							<path display="inline" fill="none" stroke="#FFFFFF" stroke-linecap="round" stroke-linejoin="round" stroke-miterlimit="10" d="
							M17.164,32.575c0,0.323,0.638,0.589,1.417,0.589h2.837c0.78,0,1.417-0.266,1.417-0.589c0-0.324-0.638-0.59-1.417-0.59h-2.837
							C17.802,31.985,17.164,32.251,17.164,32.575z"/>
					</g>
					<g>
						<path fill="#F7A298" d="M14.563,8.085c1.881-0.996,3.134-0.015,4.029,1.802c0.642,1.302,1.956,3.502,0.655,4.742
							c-1.931,1.841-5.971-1.001-6.873-2.967c-0.637-1.389,1.059-2.958,2.128-3.544C14.523,8.107,14.543,8.096,14.563,8.085z"/>
						<path fill="none" stroke="#FFFFFF" d="M14.563,8.085c1.881-0.996,3.134-0.015,4.029,1.802
							c0.642,1.302,1.956,3.502,0.655,4.742c-1.931,1.841-5.971-1.001-6.873-2.967c-0.637-1.389,1.059-2.958,2.128-3.544
							C14.523,8.107,14.543,8.096,14.563,8.085z"/>
					</g>
					<g>
						<path fill="#F7A298" d="M25.474,8.085c-1.881-0.996-3.134-0.015-4.029,1.802c-0.642,1.302-1.956,3.502-0.655,4.742
							c1.931,1.841,5.971-1.001,6.873-2.967c0.637-1.389-1.059-2.958-2.128-3.544C25.514,8.107,25.494,8.096,25.474,8.085z"/>
						<path fill="none" stroke="#FFFFFF" d="M25.474,8.085c-1.881-0.996-3.134-0.015-4.029,1.802
							c-0.642,1.302-1.956,3.502-0.655,4.742c1.931,1.841,5.971-1.001,6.873-2.967c0.637-1.389-1.059-2.958-2.128-3.544
							C25.514,8.107,25.494,8.096,25.474,8.085z"/>
					</g>
					<g>
						<path fill="#F7A298" d="M31.004,18.455c0,0.78-0.638,1.417-1.417,1.417H10.414c-0.78,0-1.417-0.638-1.417-1.417v-2.178
							c0-0.78,0.638-1.417,1.417-1.417h4.884c0.78,0,2.055,0,2.835,0h3.734c0.78,0,2.055,0,2.835,0h4.884
							c0.78,0,1.417,0.638,1.417,1.417V18.455z"/>
						<path fill="none" stroke="#FFFFFF" d="M31.004,18.455c0,0.78-0.638,1.417-1.417,1.417H10.414c-0.78,0-1.417-0.638-1.417-1.417
							v-2.178c0-0.78,0.638-1.417,1.417-1.417h4.884c0.78,0,2.055,0,2.835,0h3.734c0.78,0,2.055,0,2.835,0h4.884
							c0.78,0,1.417,0.638,1.417,1.417V18.455z"/>
					</g>
					<g>
						<path fill="#F7A298" d="M18.582,14.859c-0.78,0-1.417,0.638-1.417,1.417v14.292c0,0.779,0.638,1.417,1.417,1.417h2.837
							c0.78,0,1.417-0.638,1.417-1.417V16.277c0-0.78-0.638-1.417-1.417-1.417H18.582z"/>
						<path fill="none" stroke="#FFFFFF" d="M18.582,14.859c-0.78,0-1.417,0.638-1.417,1.417v14.292
							c0,0.779,0.638,1.417,1.417,1.417h2.837c0.78,0,1.417-0.638,1.417-1.417V16.277c0-0.78-0.638-1.417-1.417-1.417H18.582z"/>
					</g>
				</g>
			</g>
		</g>
	</g>
</g>
<g id="HOME_copy_3">
</g>
</svg>
