<?xml version="1.0" encoding="utf-8"?>
<!-- Generator: Adobe Illustrator 16.0.0, SVG Export Plug-In . SVG Version: 6.00 Build 0)  -->
<!DOCTYPE svg PUBLIC "-//W3C//DTD SVG 1.1//EN" "http://www.w3.org/Graphics/SVG/1.1/DTD/svg11.dtd">
<svg version="1.1" id="圖層_1" xmlns="http://www.w3.org/2000/svg" xmlns:xlink="http://www.w3.org/1999/xlink" x="0px" y="0px"
	 width="112.309px" height="112.313px" viewBox="0 0 112.309 112.313" enable-background="new 0 0 112.309 112.313"
	 xml:space="preserve">
<path display="none" fill="#A5A5A5" d="M111.898,55.743c0-30.785-24.958-55.74-55.744-55.74c-30.778,0-55.744,24.955-55.744,55.739
	c0,30.793,24.962,55.743,55.744,55.743C86.94,111.486,111.892,86.536,111.898,55.743z"/>
<circle display="none" fill="#FFFFFF" cx="56.155" cy="55.744" r="55.744"/>
<g>
	<path fill="#A5A5A5" d="M61.032,62.956l11.925,11.939c2.852,2.837,2.852,7.445,0,10.298c-2.839,2.859-7.462,2.859-10.31,0.002
		L38.69,61.245c-0.136-0.108-0.307-0.161-0.423-0.271c-1.447-1.449-2.147-3.362-2.125-5.256c-0.022-1.896,0.69-3.763,2.119-5.22
		c0.124-0.105,0.265-0.137,0.406-0.24l23.977-23.979c2.839-2.854,7.46-2.854,10.311,0c2.841,2.837,2.841,7.466,0,10.313
		L61.161,48.371c0,0-5.329,5.211-5.329,7.373S61.032,62.956,61.032,62.956z"/>
</g>
</svg>
