<?xml version="1.0" encoding="utf-8"?>
<!-- Generator: Adobe Illustrator 16.0.0, SVG Export Plug-In . SVG Version: 6.00 Build 0)  -->
<!DOCTYPE svg PUBLIC "-//W3C//DTD SVG 1.1//EN" "http://www.w3.org/Graphics/SVG/1.1/DTD/svg11.dtd">
<svg version="1.1" xmlns="http://www.w3.org/2000/svg" xmlns:xlink="http://www.w3.org/1999/xlink" x="0px" y="0px" width="40px"
	 height="40.001px" viewBox="0 0 40 40.001" enable-background="new 0 0 40 40.001" xml:space="preserve">
<g id="六角星" display="none">
	<path display="inline" fill="#8967AC" d="M20,0C8.954,0,0,8.955,0,20.001c0,11.045,8.954,20,20,20c11.045,0,20-8.955,20-20
		C40,8.955,31.045,0,20,0z"/>
	<g display="inline">
		<g>
			<path fill="none" stroke="#FFFFFF" stroke-linecap="round" stroke-linejoin="round" stroke-miterlimit="10" d="M10.584,27.675
				c-1.559,0-2.197-1.104-1.417-2.455l9.415-16.307c0.78-1.351,2.055-1.351,2.835,0l9.415,16.307
				c0.78,1.351,0.142,2.455-1.417,2.455H10.584z"/>
		</g>
		<g>
			<path fill="none" stroke="#FFFFFF" stroke-linecap="round" stroke-linejoin="round" stroke-miterlimit="10" d="M29.416,14.326
				c1.559,0,2.197,1.104,1.417,2.455l-9.415,16.309c-0.78,1.351-2.055,1.351-2.835,0L9.167,16.78
				c-0.78-1.35-0.142-2.455,1.417-2.455H29.416z"/>
		</g>
	</g>
	<g display="inline">
		<g>
			<path fill="none" stroke="#FFFFFF" stroke-linecap="round" stroke-linejoin="round" stroke-miterlimit="10" d="M10.584,27.675
				c-1.559,0-2.197-1.104-1.417-2.455l9.415-16.307c0.78-1.351,2.055-1.351,2.835,0l9.415,16.307
				c0.78,1.351,0.142,2.455-1.417,2.455H10.584z"/>
		</g>
		<g>
			<path fill="none" stroke="#FFFFFF" stroke-linecap="round" stroke-linejoin="round" stroke-miterlimit="10" d="M29.416,14.326
				c1.559,0,2.197,1.104,1.417,2.455l-9.415,16.309c-0.78,1.351-2.055,1.351-2.835,0L9.167,16.78
				c-0.78-1.35-0.142-2.455,1.417-2.455H29.416z"/>
		</g>
	</g>
</g>
<g id="六角星_copy_3">
	<path fill="#CC99FF" d="M20,0C8.954,0,0,8.955,0,20.001c0,11.045,8.954,20,20,20c11.045,0,20-8.955,20-20C40,8.955,31.045,0,20,0z"
		/>
	<polygon fill="none" stroke="#FFFFFF" stroke-linecap="round" stroke-linejoin="round" stroke-miterlimit="10" points="
		23.264,9.729 23.564,37.21 15.521,22.217 	"/>
	<polygon fill="none" stroke="#FFFFFF" stroke-linecap="round" stroke-linejoin="round" stroke-miterlimit="10" points="
		2.934,17.442 23.564,37.21 15.607,23.798 	"/>
	<polygon fill="#CC99FF" stroke="#FFFFFF" stroke-linecap="round" stroke-linejoin="round" stroke-miterlimit="10" points="
		11.089,27.567 23.564,37.21 16.191,22.016 	"/>
	<g>
		<path fill="#CC99FF" d="M23.518,22.824c0.077,0.136,0.013,0.229-0.142,0.207l-6.905-0.976c-0.154-0.022-0.367,0.054-0.473,0.169
			l-4.718,5.134c-0.105,0.115-0.214,0.083-0.241-0.07l-1.206-6.867c-0.027-0.153-0.165-0.332-0.307-0.397l-6.342-2.901
			c-0.142-0.065-0.145-0.178-0.007-0.251l6.16-3.269c0.138-0.073,0.265-0.26,0.283-0.415l0.799-6.928
			c0.018-0.155,0.124-0.193,0.236-0.084l5.013,4.848c0.112,0.108,0.329,0.172,0.481,0.141l6.835-1.38
			c0.153-0.031,0.222,0.059,0.153,0.199l-3.062,6.264c-0.068,0.14-0.062,0.366,0.015,0.502L23.518,22.824z"/>
		<path fill="none" stroke="#FFFFFF" stroke-linecap="round" stroke-linejoin="round" stroke-miterlimit="10" d="M23.518,22.824
			c0.077,0.136,0.013,0.229-0.142,0.207l-6.905-0.976c-0.154-0.022-0.367,0.054-0.473,0.169l-4.718,5.134
			c-0.105,0.115-0.214,0.083-0.241-0.07l-1.206-6.867c-0.027-0.153-0.165-0.332-0.307-0.397l-6.342-2.901
			c-0.142-0.065-0.145-0.178-0.007-0.251l6.16-3.269c0.138-0.073,0.265-0.26,0.283-0.415l0.799-6.928
			c0.018-0.155,0.124-0.193,0.236-0.084l5.013,4.848c0.112,0.108,0.329,0.172,0.481,0.141l6.835-1.38
			c0.153-0.031,0.222,0.059,0.153,0.199l-3.062,6.264c-0.068,0.14-0.062,0.366,0.015,0.502L23.518,22.824z"/>
	</g>
	
		<polygon display="none" fill="none" stroke="#FFFFFF" stroke-linecap="round" stroke-linejoin="round" stroke-miterlimit="10" points="
		25.904,12.11 23.481,29.612 29.053,17.313 	"/>
	<g>
		<path fill="#FFFFFF" d="M26.14,17.79c-0.154,0.025-0.22-0.066-0.146-0.204l1.261-2.351c0.074-0.138,0.075-0.363,0.004-0.502
			l-1.225-2.371c-0.071-0.139-0.004-0.229,0.149-0.202l2.625,0.471c0.153,0.028,0.369-0.041,0.479-0.151l1.877-1.896
			c0.11-0.11,0.217-0.075,0.238,0.08l0.363,2.643c0.021,0.154,0.152,0.338,0.292,0.408l2.382,1.199
			c0.14,0.07,0.139,0.183-0.002,0.251l-2.4,1.162c-0.141,0.068-0.275,0.25-0.298,0.404l-0.404,2.638
			c-0.023,0.154-0.131,0.188-0.239,0.075l-1.847-1.926c-0.108-0.112-0.322-0.184-0.476-0.159L26.14,17.79z"/>
		<path fill="none" stroke="#FFFFFF" stroke-linecap="round" stroke-linejoin="round" stroke-miterlimit="10" d="M26.14,17.79
			c-0.154,0.025-0.22-0.066-0.146-0.204l1.261-2.351c0.074-0.138,0.075-0.363,0.004-0.502l-1.225-2.371
			c-0.071-0.139-0.004-0.229,0.149-0.202l2.625,0.471c0.153,0.028,0.369-0.041,0.479-0.151l1.877-1.896
			c0.11-0.11,0.217-0.075,0.238,0.08l0.363,2.643c0.021,0.154,0.152,0.338,0.292,0.408l2.382,1.199
			c0.14,0.07,0.139,0.183-0.002,0.251l-2.4,1.162c-0.141,0.068-0.275,0.25-0.298,0.404l-0.404,2.638
			c-0.023,0.154-0.131,0.188-0.239,0.075l-1.847-1.926c-0.108-0.112-0.322-0.184-0.476-0.159L26.14,17.79z"/>
	</g>
	<polygon fill="none" stroke="#FFFFFF" stroke-linecap="round" stroke-linejoin="round" stroke-miterlimit="10" points="
		23.564,37.21 23.657,23.071 16.191,22.016 	"/>
	
		<polygon display="none" fill="#CC99FF" stroke="#FFFFFF" stroke-linecap="round" stroke-linejoin="round" stroke-miterlimit="10" points="
		25.86,17.836 23.481,29.612 29.053,17.313 	"/>
	
		<polygon display="none" fill="#CC99FF" stroke="#FFFFFF" stroke-linecap="round" stroke-linejoin="round" stroke-miterlimit="10" points="
		31.292,19.648 23.481,29.612 29.053,17.313 	"/>
	<g>
		<path fill="#FFFFFF" d="M27.917,28.411c-0.156,0.002-0.207-0.099-0.113-0.224l0.783-1.039c0.094-0.125,0.13-0.348,0.081-0.495
			l-0.414-1.235c-0.049-0.147,0.031-0.228,0.178-0.177l1.23,0.424c0.147,0.051,0.371,0.016,0.496-0.077l1.045-0.773
			c0.125-0.093,0.226-0.041,0.223,0.114l-0.021,1.302c-0.003,0.155,0.099,0.357,0.226,0.448l1.059,0.754
			c0.127,0.091,0.109,0.202-0.04,0.248l-1.244,0.382c-0.149,0.046-0.31,0.205-0.356,0.354l-0.391,1.24
			c-0.047,0.148-0.159,0.166-0.248,0.038l-0.747-1.065c-0.089-0.128-0.29-0.231-0.446-0.229L27.917,28.411z"/>
		<path fill="none" stroke="#FFFFFF" stroke-linecap="round" stroke-linejoin="round" stroke-miterlimit="10" d="M27.917,28.411
			c-0.156,0.002-0.207-0.099-0.113-0.224l0.783-1.039c0.094-0.125,0.13-0.348,0.081-0.495l-0.414-1.235
			c-0.049-0.147,0.031-0.228,0.178-0.177l1.23,0.424c0.147,0.051,0.371,0.016,0.496-0.077l1.045-0.773
			c0.125-0.093,0.226-0.041,0.223,0.114l-0.021,1.302c-0.003,0.155,0.099,0.357,0.226,0.448l1.059,0.754
			c0.127,0.091,0.109,0.202-0.04,0.248l-1.244,0.382c-0.149,0.046-0.31,0.205-0.356,0.354l-0.391,1.24
			c-0.047,0.148-0.159,0.166-0.248,0.038l-0.747-1.065c-0.089-0.128-0.29-0.231-0.446-0.229L27.917,28.411z"/>
	</g>
	
		<polygon display="none" fill="none" stroke="#FFFFFF" stroke-linecap="round" stroke-linejoin="round" stroke-miterlimit="10" points="
		34.693,15.041 23.481,29.612 29.053,17.313 	"/>
</g>
<g id="六角星_copy_5">
</g>
<g id="六角星_copy_2" display="none">
	<path display="inline" fill="#8967AC" d="M20,0C8.954,0,0,8.955,0,20.001c0,11.045,8.954,20,20,20c11.045,0,20-8.955,20-20
		C40,8.955,31.045,0,20,0z"/>
	<g display="inline">
		<g>
			<path fill="none" stroke="#FFFFFF" stroke-linecap="round" stroke-linejoin="round" stroke-miterlimit="10" d="M10.584,27.675
				c-1.559,0-2.197-1.104-1.417-2.455l9.415-16.307c0.78-1.351,2.055-1.351,2.835,0l9.415,16.307
				c0.78,1.351,0.142,2.455-1.417,2.455H10.584z"/>
		</g>
		<g>
			<path fill="none" stroke="#FFFFFF" stroke-linecap="round" stroke-linejoin="round" stroke-miterlimit="10" d="M29.416,14.326
				c1.559,0,2.197,1.104,1.417,2.455l-9.415,16.309c-0.78,1.351-2.055,1.351-2.835,0L9.167,16.78
				c-0.78-1.35-0.142-2.455,1.417-2.455H29.416z"/>
		</g>
	</g>
	<g display="inline">
		<g>
			<path fill="none" stroke="#FFFFFF" stroke-linecap="round" stroke-linejoin="round" stroke-miterlimit="10" d="M10.584,27.675
				c-1.559,0-2.197-1.104-1.417-2.455l9.415-16.307c0.78-1.351,2.055-1.351,2.835,0l9.415,16.307
				c0.78,1.351,0.142,2.455-1.417,2.455H10.584z"/>
		</g>
		<g>
			<path fill="none" stroke="#FFFFFF" stroke-linecap="round" stroke-linejoin="round" stroke-miterlimit="10" d="M29.416,14.326
				c1.559,0,2.197,1.104,1.417,2.455l-9.415,16.309c-0.78,1.351-2.055,1.351-2.835,0L9.167,16.78
				c-0.78-1.35-0.142-2.455,1.417-2.455H29.416z"/>
		</g>
	</g>
</g>
<g id="六角星_copy" display="none">
	
		<polygon display="inline" fill="none" stroke="#FFFFFF" stroke-linecap="round" stroke-linejoin="round" stroke-miterlimit="10" points="
		20,16.364 21.506,19.417 24.875,19.906 22.438,22.282 23.013,25.637 20,24.053 16.987,25.637 17.562,22.282 15.125,19.906 
		18.494,19.417 	"/>
	<polygon fill="none" stroke="#FFFFFF" stroke-linecap="round" stroke-linejoin="round" stroke-miterlimit="10" points="20,14.7 
		22.047,18.849 26.625,19.514 23.313,22.742 24.095,27.301 20,25.148 15.906,27.301 16.687,22.742 13.375,19.514 17.953,18.849 	"/>
	<polygon display="inline" fill="#FFFFFF" points="29.563,6.458 29.45,8.25 30.863,9.358 29.124,9.806 28.506,11.491 27.543,9.975 
		25.749,9.909 26.893,8.525 26.401,6.797 28.072,7.458 	"/>
	<polygon display="inline" fill="#FFFFFF" points="37.21,20.517 35.606,21.323 35.361,23.102 34.097,21.826 32.33,22.143 
		33.154,20.546 32.306,18.964 34.078,19.254 35.322,17.957 35.593,19.733 	"/>
	<polygon display="inline" fill="#FFFFFF" points="29.492,34.965 27.985,33.987 26.327,34.672 26.791,32.938 25.625,31.571 
		27.42,31.478 28.359,29.947 29.002,31.625 30.749,32.045 29.352,33.176 	"/>
	<polygon display="inline" fill="#FFFFFF" points="10.704,34.98 10.789,33.188 9.361,32.101 11.093,31.626 11.685,29.932 
		12.67,31.434 14.466,31.473 13.341,32.875 13.859,34.595 12.179,33.959 	"/>
	<polygon display="inline" fill="#FFFFFF" points="2.803,21.1 4.394,20.269 4.612,18.487 5.896,19.743 7.658,19.4 6.857,21.008 
		7.729,22.58 5.952,22.315 4.728,23.631 4.429,21.857 	"/>
	<polygon display="inline" fill="#FFFFFF" points="10.555,6.458 12.075,7.413 13.723,6.703 13.287,8.444 14.471,9.792 12.679,9.912 
		11.762,11.458 11.093,9.79 9.34,9.396 10.721,8.245 	"/>
</g>
<g id="六角星_copy_4" display="none">
</g>
</svg>
