<?xml version="1.0" encoding="utf-8"?>
<!-- Generator: Adobe Illustrator 16.0.0, SVG Export Plug-In . SVG Version: 6.00 Build 0)  -->
<!DOCTYPE svg PUBLIC "-//W3C//DTD SVG 1.1//EN" "http://www.w3.org/Graphics/SVG/1.1/DTD/svg11.dtd">
<svg version="1.1" xmlns="http://www.w3.org/2000/svg" xmlns:xlink="http://www.w3.org/1999/xlink" x="0px" y="0px" width="40px"
	 height="40px" viewBox="0 0 40 40" enable-background="new 0 0 40 40" xml:space="preserve">
<g id="六角星" display="none">
</g>
<g id="六角星_copy_3">
</g>
<g id="六角星_copy_5">
	<path fill="#DADADA" d="M19.955,0C8.91,0-0.044,8.954-0.044,20c0,11.045,8.954,20,20,20c11.046,0,20.001-8.955,20.001-20
		C39.956,8.954,31.001,0,19.955,0z"/>
	<polygon fill="none" stroke="#FFFFFF" stroke-linecap="round" stroke-linejoin="round" stroke-miterlimit="10" points="
		23.221,9.728 23.521,37.209 15.477,22.216 	"/>
	<polygon fill="none" stroke="#FFFFFF" stroke-linecap="round" stroke-linejoin="round" stroke-miterlimit="10" points="
		2.89,17.442 23.521,37.209 15.563,23.797 	"/>
	<polygon fill="#DADADA" stroke="#FFFFFF" stroke-linecap="round" stroke-linejoin="round" stroke-miterlimit="10" points="
		11.045,27.567 23.521,37.209 16.146,22.015 	"/>
	<g>
		<path fill="#DADADA" d="M23.474,22.824c0.077,0.136,0.014,0.229-0.141,0.207l-6.906-0.976c-0.154-0.022-0.366,0.054-0.472,0.169
			l-4.718,5.134c-0.105,0.115-0.214,0.083-0.241-0.07L9.791,20.42c-0.027-0.153-0.165-0.332-0.307-0.397l-6.342-2.901
			C3,17.057,2.997,16.944,3.135,16.871l6.16-3.269c0.138-0.073,0.265-0.26,0.283-0.415l0.799-6.928
			c0.018-0.155,0.124-0.193,0.236-0.084l5.012,4.848c0.112,0.108,0.329,0.172,0.482,0.141l6.835-1.38
			c0.153-0.031,0.223,0.059,0.154,0.199l-3.063,6.264c-0.068,0.14-0.062,0.366,0.016,0.502L23.474,22.824z"/>
		<path fill="none" stroke="#FFFFFF" stroke-linecap="round" stroke-linejoin="round" stroke-miterlimit="10" d="M23.474,22.824
			c0.077,0.136,0.014,0.229-0.141,0.207l-6.906-0.976c-0.154-0.022-0.366,0.054-0.472,0.169l-4.718,5.134
			c-0.105,0.115-0.214,0.083-0.241-0.07L9.791,20.42c-0.027-0.153-0.165-0.332-0.307-0.397l-6.342-2.901
			C3,17.057,2.997,16.944,3.135,16.871l6.16-3.269c0.138-0.073,0.265-0.26,0.283-0.415l0.799-6.928
			c0.018-0.155,0.124-0.193,0.236-0.084l5.012,4.848c0.112,0.108,0.329,0.172,0.482,0.141l6.835-1.38
			c0.153-0.031,0.223,0.059,0.154,0.199l-3.063,6.264c-0.068,0.14-0.062,0.366,0.016,0.502L23.474,22.824z"/>
	</g>
	
		<polygon display="none" fill="none" stroke="#FFFFFF" stroke-linecap="round" stroke-linejoin="round" stroke-miterlimit="10" points="
		25.859,12.109 23.438,29.612 29.009,17.313 	"/>
	<g>
		<path fill="#FFFFFF" d="M26.096,17.79c-0.153,0.025-0.219-0.066-0.146-0.204l1.261-2.351c0.074-0.138,0.075-0.363,0.004-0.502
			l-1.225-2.371c-0.072-0.139-0.005-0.229,0.148-0.202l2.625,0.471c0.154,0.028,0.369-0.041,0.479-0.151l1.878-1.896
			c0.11-0.11,0.218-0.075,0.238,0.08l0.362,2.643c0.021,0.154,0.152,0.338,0.293,0.408l2.382,1.199
			c0.14,0.07,0.139,0.183-0.002,0.251l-2.4,1.162c-0.141,0.068-0.274,0.25-0.298,0.404l-0.404,2.638
			c-0.023,0.154-0.131,0.188-0.239,0.075l-1.847-1.926c-0.107-0.112-0.322-0.184-0.477-0.159L26.096,17.79z"/>
		<path fill="none" stroke="#FFFFFF" stroke-linecap="round" stroke-linejoin="round" stroke-miterlimit="10" d="M26.096,17.79
			c-0.153,0.025-0.219-0.066-0.146-0.204l1.261-2.351c0.074-0.138,0.075-0.363,0.004-0.502l-1.225-2.371
			c-0.072-0.139-0.005-0.229,0.148-0.202l2.625,0.471c0.154,0.028,0.369-0.041,0.479-0.151l1.878-1.896
			c0.11-0.11,0.218-0.075,0.238,0.08l0.362,2.643c0.021,0.154,0.152,0.338,0.293,0.408l2.382,1.199
			c0.14,0.07,0.139,0.183-0.002,0.251l-2.4,1.162c-0.141,0.068-0.274,0.25-0.298,0.404l-0.404,2.638
			c-0.023,0.154-0.131,0.188-0.239,0.075l-1.847-1.926c-0.107-0.112-0.322-0.184-0.477-0.159L26.096,17.79z"/>
	</g>
	<polygon fill="none" stroke="#FFFFFF" stroke-linecap="round" stroke-linejoin="round" stroke-miterlimit="10" points="
		23.521,37.209 23.613,23.071 16.146,22.015 	"/>
	
		<polygon display="none" fill="#DADADA" stroke="#FFFFFF" stroke-linecap="round" stroke-linejoin="round" stroke-miterlimit="10" points="
		25.816,17.835 23.438,29.612 29.009,17.313 	"/>
	
		<polygon display="none" fill="#DADADA" stroke="#FFFFFF" stroke-linecap="round" stroke-linejoin="round" stroke-miterlimit="10" points="
		31.248,19.648 23.438,29.612 29.009,17.313 	"/>
	<g>
		<path fill="#FFFFFF" d="M27.873,28.411c-0.156,0.002-0.207-0.099-0.113-0.224l0.783-1.039c0.094-0.125,0.13-0.348,0.08-0.495
			l-0.414-1.235c-0.049-0.147,0.031-0.228,0.179-0.177l1.229,0.424c0.148,0.051,0.371,0.016,0.496-0.077l1.046-0.773
			c0.126-0.093,0.226-0.041,0.224,0.114l-0.021,1.302c-0.004,0.155,0.099,0.357,0.226,0.448l1.059,0.754
			c0.127,0.091,0.108,0.202-0.04,0.248l-1.244,0.382c-0.148,0.046-0.309,0.205-0.355,0.354l-0.391,1.24
			c-0.047,0.148-0.159,0.166-0.248,0.038l-0.747-1.065c-0.089-0.128-0.29-0.231-0.446-0.229L27.873,28.411z"/>
		<path fill="none" stroke="#FFFFFF" stroke-linecap="round" stroke-linejoin="round" stroke-miterlimit="10" d="M27.873,28.411
			c-0.156,0.002-0.207-0.099-0.113-0.224l0.783-1.039c0.094-0.125,0.13-0.348,0.08-0.495l-0.414-1.235
			c-0.049-0.147,0.031-0.228,0.179-0.177l1.229,0.424c0.148,0.051,0.371,0.016,0.496-0.077l1.046-0.773
			c0.126-0.093,0.226-0.041,0.224,0.114l-0.021,1.302c-0.004,0.155,0.099,0.357,0.226,0.448l1.059,0.754
			c0.127,0.091,0.108,0.202-0.04,0.248l-1.244,0.382c-0.148,0.046-0.309,0.205-0.355,0.354l-0.391,1.24
			c-0.047,0.148-0.159,0.166-0.248,0.038l-0.747-1.065c-0.089-0.128-0.29-0.231-0.446-0.229L27.873,28.411z"/>
	</g>
	
		<polygon display="none" fill="none" stroke="#FFFFFF" stroke-linecap="round" stroke-linejoin="round" stroke-miterlimit="10" points="
		34.648,15.041 23.438,29.612 29.009,17.313 	"/>
</g>
<g id="六角星_copy_2" display="none">
</g>
<g id="六角星_copy" display="none">
	<path display="inline" fill="#DADADA" d="M19.955,0C8.91,0-0.044,8.954-0.044,20c0,11.045,8.954,20,20,20
		c11.046,0,20.001-8.955,20.001-20C39.956,8.954,31.001,0,19.955,0z"/>
	<g display="inline">
		<g>
			<path fill="none" stroke="#FFFFFF" stroke-linecap="round" stroke-linejoin="round" stroke-miterlimit="10" d="M10.541,27.674
				c-1.559,0-2.197-1.104-1.417-2.455l9.416-16.307c0.779-1.351,2.055-1.351,2.834,0l9.416,16.307
				c0.779,1.351,0.142,2.455-1.418,2.455H10.541z"/>
		</g>
		<g>
			<path fill="none" stroke="#FFFFFF" stroke-linecap="round" stroke-linejoin="round" stroke-miterlimit="10" d="M29.371,14.325
				c1.56,0,2.197,1.104,1.418,2.455l-9.416,16.309c-0.779,1.351-2.055,1.351-2.834,0L9.124,16.78
				c-0.78-1.35-0.142-2.455,1.417-2.455H29.371z"/>
		</g>
	</g>
	<g>
		<g display="inline">
			<path fill="none" stroke="#FFFFFF" stroke-linecap="round" stroke-linejoin="round" stroke-miterlimit="10" d="M10.541,27.674
				c-1.559,0-2.197-1.104-1.417-2.455l9.416-16.307c0.779-1.351,2.055-1.351,2.834,0l9.416,16.307
				c0.779,1.351,0.142,2.455-1.418,2.455H10.541z"/>
		</g>
		<g display="inline">
			<path fill="none" stroke="#FFFFFF" stroke-linecap="round" stroke-linejoin="round" stroke-miterlimit="10" d="M29.371,14.325
				c1.56,0,2.197,1.104,1.418,2.455l-9.416,16.309c-0.779,1.351-2.055,1.351-2.834,0L9.124,16.78
				c-0.78-1.35-0.142-2.455,1.417-2.455H29.371z"/>
		</g>
	</g>
</g>
<g id="六角星_copy_4" display="none">
	<path display="inline" fill="#DADADA" d="M19.955,0C8.91,0-0.044,8.954-0.044,20c0,11.045,8.954,20,20,20
		c11.046,0,20.001-8.955,20.001-20C39.956,8.954,31.001,0,19.955,0z"/>
	<g display="inline">
		<g>
			<path fill="none" stroke="#FFFFFF" stroke-linecap="round" stroke-linejoin="round" stroke-miterlimit="10" d="M10.541,27.674
				c-1.559,0-2.197-1.104-1.417-2.455l9.416-16.307c0.779-1.351,2.055-1.351,2.834,0l9.416,16.307
				c0.779,1.351,0.142,2.455-1.418,2.455H10.541z"/>
		</g>
		<g>
			<path fill="none" stroke="#FFFFFF" stroke-linecap="round" stroke-linejoin="round" stroke-miterlimit="10" d="M29.371,14.325
				c1.56,0,2.197,1.104,1.418,2.455l-9.416,16.309c-0.779,1.351-2.055,1.351-2.834,0L9.124,16.78
				c-0.78-1.35-0.142-2.455,1.417-2.455H29.371z"/>
		</g>
	</g>
</g>
</svg>
