<?xml version="1.0" encoding="utf-8"?>
<!-- Generator: Adobe Illustrator 16.0.0, SVG Export Plug-In . SVG Version: 6.00 Build 0)  -->
<!DOCTYPE svg PUBLIC "-//W3C//DTD SVG 1.1//EN" "http://www.w3.org/Graphics/SVG/1.1/DTD/svg11.dtd">
<svg version="1.1" id="圖層_1" xmlns="http://www.w3.org/2000/svg" xmlns:xlink="http://www.w3.org/1999/xlink" x="0px" y="0px"
	 width="112.309px" height="112.313px" viewBox="0 0 112.309 112.313" enable-background="new 0 0 112.309 112.313"
	 xml:space="preserve">
<path display="none" fill="#A5A5A5" d="M111.898,55.743c0-30.785-24.958-55.74-55.744-55.74c-30.778,0-55.744,24.955-55.744,55.739
	c0,30.793,24.962,55.743,55.744,55.743C86.94,111.486,111.892,86.536,111.898,55.743z"/>
<circle display="none" fill="#FFFFFF" cx="56.155" cy="55.744" r="55.744"/>
<g>
	<path fill="#A5A5A5" d="M62.405,55.744c0-2.162-5.329-7.373-5.329-7.373L45.282,36.592c-2.841-2.847-2.841-7.476,0-10.313
		c2.851-2.854,7.472-2.854,10.311,0L79.57,50.259c0.142,0.104,0.282,0.135,0.406,0.24c1.429,1.457,2.142,3.324,2.119,5.22
		c0.022,1.894-0.678,3.807-2.125,5.256c-0.116,0.109-0.287,0.162-0.423,0.271l-23.958,23.95c-2.848,2.857-7.471,2.857-10.31-0.002
		c-2.852-2.853-2.852-7.461,0-10.298l11.925-11.939C57.204,62.956,62.405,57.906,62.405,55.744z"/>
</g>
</svg>
