<?xml version="1.0" encoding="utf-8"?>
<!-- Generator: Adobe Illustrator 16.0.0, SVG Export Plug-In . SVG Version: 6.00 Build 0)  -->
<!DOCTYPE svg PUBLIC "-//W3C//DTD SVG 1.1//EN" "http://www.w3.org/Graphics/SVG/1.1/DTD/svg11.dtd">
<svg version="1.1" xmlns="http://www.w3.org/2000/svg" xmlns:xlink="http://www.w3.org/1999/xlink" x="0px" y="0px" width="380px"
	 height="125px" viewBox="0 0 380 125" enable-background="new 0 0 380 125" xml:space="preserve">
<g id="Layer_1">
	<g>
		<path fill="#00ACC1" d="M0,0h380v125H0V0z"/>
		<circle fill="none" stroke="#FFFFFF" stroke-width="2" cx="60" cy="60" r="40"/>
		<g>
			<path fill="#FFFFFF" d="M54.227,84.189c-0.547,0.002-0.992-0.438-0.995-0.985l0,0c0.004-0.546,0.449-0.987,0.995-0.983h11.548
				c0.546-0.002,0.99,0.438,0.993,0.983c-0.003,0.546-0.447,0.985-0.993,0.985H54.227z M55.51,88.096
				c-0.546,0.002-0.989-0.438-0.993-0.984c0.004-0.545,0.447-0.985,0.993-0.983h8.982c0.545-0.002,0.988,0.438,0.991,0.983
				c-0.003,0.546-0.446,0.986-0.991,0.984H55.51z M59.066,74.486c0,0.541-0.441,0.979-0.988,0.979
				c-0.544,0.003-0.986-0.438-0.989-0.979c-0.004-4.146-0.124-7.24-0.701-10.108c-0.571-2.834-1.594-5.461-3.409-8.701
				c-0.264-0.471-0.096-1.066,0.376-1.33c0.002-0.001,0.005-0.003,0.007-0.004c0.479-0.263,1.078-0.093,1.35,0.38
				c1.926,3.441,3.017,6.243,3.625,9.272C58.935,66.984,59.061,70.195,59.066,74.486z M62.915,74.486
				c0,0.541-0.443,0.979-0.99,0.979c-0.544,0.003-0.986-0.438-0.989-0.979c0.005-4.291,0.13-7.5,0.733-10.491
				c0.606-3.03,1.699-5.83,3.626-9.272c0.268-0.475,0.868-0.645,1.345-0.38c0.473,0.259,0.646,0.852,0.389,1.325
				c-0.002,0.003-0.004,0.006-0.006,0.009c-1.813,3.24-2.838,5.869-3.409,8.701C63.039,67.245,62.917,70.342,62.915,74.486
				L62.915,74.486z"/>
			<path fill="#FFFFFF" d="M53.54,56.134c-0.518-0.161-0.806-0.711-0.645-1.228c0.001-0.002,0.002-0.005,0.002-0.007
				c0.171-0.518,0.729-0.801,1.246-0.635c0.69,0.221,1.289,0.518,1.841,0.793l0.056,0.029c0.861,0.43,1.581,0.767,2.113,0.336
				l1.223-0.986c0.425-0.341,1.046-0.277,1.393,0.143c0.342,0.417,0.28,1.032-0.137,1.374c-0.003,0.002-0.006,0.004-0.008,0.006
				l-1.223,0.987c-1.521,1.226-2.765,0.63-4.263-0.115l-0.046-0.02C54.61,56.569,54.084,56.308,53.54,56.134z M60.994,33.799
				c-0.005,0.546-0.448,0.986-0.993,0.984c-0.546,0.001-0.99-0.438-0.993-0.984v-3.815C59.011,29.439,59.454,28.999,60,29
				c0.545-0.001,0.988,0.438,0.993,0.984L60.994,33.799L60.994,33.799z"/>
			<path fill="#FFFFFF" d="M65.857,54.264c0.521-0.167,1.076,0.116,1.246,0.635c0.166,0.515-0.117,1.066-0.632,1.232
				c-0.003,0.001-0.006,0.002-0.009,0.003c-0.544,0.174-1.07,0.437-1.558,0.679l-0.046,0.02c-1.496,0.745-2.74,1.344-4.263,0.115
				l-1.22-0.986c-0.421-0.336-0.489-0.951-0.152-1.372c0.002-0.003,0.004-0.005,0.006-0.008c0.349-0.42,0.968-0.484,1.395-0.144
				l1.221,0.986c0.534,0.431,1.25,0.093,2.115-0.336l0.054-0.029C64.568,54.782,65.166,54.485,65.857,54.264L65.857,54.264z"/>
			<path fill="#FFFFFF" d="M72.498,44.3c3.195,3.17,5.178,7.55,5.178,12.386c0,3.716-1.191,7.333-3.4,10.323
				c-1.821,2.472-3.303,4.095-4.449,5.355c-2.068,2.266-2.976,3.259-2.976,6.573c-0.003,0.545-0.447,0.984-0.993,0.982H54.229
				c-0.546,0.003-0.991-0.438-0.995-0.982c0-3.283-0.925-4.285-2.978-6.516l-0.002-0.002l-0.002,0.002
				c-1.16-1.259-2.655-2.881-4.524-5.414c-2.209-2.988-3.4-6.607-3.398-10.324c0-2.366,0.478-4.63,1.343-6.697l0.019-0.04
				c0.892-2.114,2.188-4.033,3.818-5.647c1.646-1.629,3.596-2.919,5.739-3.798V40.5c2.144-0.881,4.438-1.333,6.758-1.331
				C64.683,39.167,69.172,41.01,72.498,44.3L72.498,44.3z M75.688,56.686c0-4.293-1.758-8.179-4.595-10.993
				c-1.459-1.448-3.188-2.595-5.09-3.377c-1.905-0.78-3.944-1.18-6.003-1.176c-2.13,0-4.157,0.418-5.997,1.175v-0.002l-0.004,0.002
				c-1.901,0.781-3.631,1.929-5.089,3.377c-1.444,1.429-2.598,3.126-3.392,4.996l-0.02,0.053c-0.785,1.883-1.188,3.903-1.188,5.943
				c0,1.686,0.271,3.31,0.77,4.822c0.514,1.557,1.271,3.021,2.243,4.342c1.794,2.432,3.255,4.019,4.391,5.252l-0.002,0.002
				c2.21,2.395,3.31,3.59,3.479,6.853h9.69c0.17-3.283,1.248-4.47,3.468-6.899c1.11-1.218,2.535-2.781,4.321-5.201
				c0.973-1.319,1.729-2.785,2.241-4.341c0.501-1.516,0.771-3.139,0.771-4.826H75.688z M56.793,92
				c-0.546,0.002-0.99-0.438-0.993-0.984c0.003-0.545,0.447-0.986,0.993-0.983h6.416c0.546-0.003,0.99,0.438,0.993,0.983
				c-0.005,0.547-0.448,0.986-0.993,0.984H56.793z M72.188,37.295c-0.275,0.47-0.878,0.63-1.352,0.361
				c-0.47-0.267-0.634-0.864-0.367-1.334c0.001-0.001,0.002-0.003,0.003-0.005l1.925-3.304c0.277-0.469,0.878-0.629,1.353-0.36
				c0.474,0.268,0.635,0.869,0.362,1.339L72.188,37.295z M49.528,36.32c0.271,0.467,0.109,1.063-0.356,1.332
				c-0.002,0.001-0.005,0.003-0.007,0.004c-0.474,0.269-1.073,0.108-1.351-0.36l-1.924-3.304c-0.27-0.468-0.109-1.065,0.358-1.335
				c0.002-0.001,0.004-0.002,0.006-0.003c0.474-0.269,1.074-0.108,1.351,0.361L49.528,36.32L49.528,36.32z M40.871,44.176
				c0.472,0.268,0.636,0.87,0.363,1.339c-0.274,0.469-0.877,0.629-1.35,0.36l-3.333-1.906c-0.47-0.264-0.636-0.858-0.372-1.327
				c0.002-0.003,0.003-0.006,0.005-0.01c0.275-0.47,0.879-0.631,1.354-0.361L40.871,44.176z M80.116,45.876
				c-0.475,0.27-1.076,0.108-1.354-0.361c-0.271-0.468-0.11-1.066,0.357-1.336c0.002-0.001,0.005-0.002,0.007-0.004l3.334-1.906
				c0.474-0.27,1.075-0.109,1.352,0.36c0.271,0.469,0.109,1.067-0.358,1.337c-0.002,0.001-0.004,0.002-0.005,0.003L80.116,45.876z"
				/>
			<path fill="#FFFFFF" d="M49.68,60.576c0.21,0.498-0.022,1.071-0.521,1.281c-0.002,0.001-0.005,0.002-0.008,0.002
				c-0.502,0.209-1.079-0.023-1.295-0.523c-0.681-1.608-1.034-3.335-1.039-5.082c0.004-0.545,0.448-0.985,0.993-0.984
				c0.546-0.001,0.99,0.438,0.993,0.984c0,0.77,0.077,1.51,0.22,2.21C49.172,59.195,49.395,59.905,49.68,60.576L49.68,60.576z
				 M49.68,51.932c-0.216,0.5-0.793,0.733-1.295,0.523c-0.499-0.207-0.736-0.779-0.529-1.278c0.001-0.002,0.001-0.004,0.002-0.006
				c0.33-0.773,0.734-1.513,1.206-2.209l0.002-0.002l-0.002-0.002c0.476-0.697,1.017-1.348,1.614-1.942
				c0.602-0.594,1.259-1.129,1.962-1.597v-0.002c0.688-0.46,1.438-0.864,2.233-1.196c1.624-0.678,3.365-1.029,5.127-1.031
				c0.546-0.001,0.99,0.439,0.993,0.985c-0.005,0.546-0.448,0.986-0.993,0.984c-0.778,0-1.527,0.076-2.233,0.215
				c-0.739,0.146-1.453,0.37-2.127,0.653c-0.656,0.274-1.29,0.617-1.892,1.019h-0.002c-0.598,0.399-1.153,0.855-1.662,1.362
				c-0.512,0.504-0.972,1.057-1.374,1.65l-0.002-0.002C50.305,50.649,49.959,51.276,49.68,51.932L49.68,51.932z"/>
		</g>
		<text transform="matrix(1 0 0 1 107.4998 39)" fill="#FFFFFF" font-family="'MicrosoftJhengHeiBold'" font-size="18">友善的創作環境</text>
		<text transform="matrix(1 0 0 1 109.9998 65)" fill="#FFFFFF" font-family="'MicrosoftJhengHeiRegular'" font-size="14">透過小額贊助支持創作人的原創作品，</text>
		<text transform="matrix(1 0 0 1 365.0002 65)" fill="#FFFFFF" font-family="'MicrosoftJhengHeiRegular'" font-size="14"> </text>
		<text transform="matrix(1 0 0 1 109.9998 85)" fill="#FFFFFF" font-family="'MicrosoftJhengHeiRegular'" font-size="14">同時也為瀏覽人匯集優質內容。</text>
	</g>
</g>
<g id="Layer_1_copy" display="none">
	<g display="inline">
		<path fill="#00ACC1" d="M0,0h380v125H0V0z"/>
		<circle fill="none" stroke="#FFFFFF" stroke-width="2" cx="60" cy="60" r="40"/>
		<g>
			<path fill="#FFFFFF" d="M54.227,84.189c-0.547,0.002-0.992-0.438-0.995-0.985l0,0c0.004-0.546,0.449-0.987,0.995-0.983h11.548
				c0.546-0.002,0.99,0.438,0.993,0.983c-0.003,0.546-0.447,0.985-0.993,0.985H54.227z M55.51,88.096
				c-0.546,0.002-0.989-0.438-0.993-0.984c0.004-0.545,0.447-0.985,0.993-0.983h8.982c0.545-0.002,0.988,0.438,0.991,0.983
				c-0.003,0.546-0.446,0.986-0.991,0.984H55.51z M59.066,74.486c0,0.541-0.441,0.979-0.988,0.979
				c-0.544,0.003-0.986-0.438-0.989-0.979c-0.004-4.146-0.124-7.24-0.701-10.108c-0.571-2.834-1.594-5.461-3.409-8.701
				c-0.264-0.471-0.096-1.066,0.376-1.33c0.002-0.001,0.005-0.003,0.007-0.004c0.479-0.263,1.078-0.093,1.35,0.38
				c1.926,3.441,3.017,6.243,3.625,9.272C58.935,66.984,59.061,70.195,59.066,74.486z M62.915,74.486
				c0,0.541-0.443,0.979-0.99,0.979c-0.544,0.003-0.986-0.438-0.989-0.979c0.005-4.291,0.13-7.5,0.733-10.491
				c0.606-3.03,1.699-5.83,3.626-9.272c0.268-0.475,0.868-0.645,1.345-0.38c0.473,0.259,0.646,0.852,0.389,1.325
				c-0.002,0.003-0.004,0.006-0.006,0.009c-1.813,3.24-2.838,5.869-3.409,8.701C63.039,67.245,62.917,70.342,62.915,74.486
				L62.915,74.486z"/>
			<path fill="#FFFFFF" d="M53.54,56.134c-0.518-0.161-0.806-0.711-0.645-1.228c0.001-0.002,0.002-0.005,0.002-0.007
				c0.171-0.518,0.729-0.801,1.246-0.635c0.69,0.221,1.289,0.518,1.841,0.793l0.056,0.029c0.861,0.43,1.581,0.767,2.113,0.336
				l1.223-0.986c0.425-0.341,1.046-0.277,1.393,0.143c0.342,0.417,0.28,1.032-0.137,1.374c-0.003,0.002-0.006,0.004-0.008,0.006
				l-1.223,0.987c-1.521,1.226-2.765,0.63-4.263-0.115l-0.046-0.02C54.61,56.569,54.084,56.308,53.54,56.134z M60.994,33.799
				c-0.005,0.546-0.448,0.986-0.993,0.984c-0.546,0.001-0.99-0.438-0.993-0.984v-3.815C59.011,29.439,59.454,28.999,60,29
				c0.545-0.001,0.988,0.438,0.993,0.984L60.994,33.799L60.994,33.799z"/>
			<path fill="#FFFFFF" d="M65.857,54.264c0.521-0.167,1.076,0.116,1.246,0.635c0.166,0.515-0.117,1.066-0.632,1.232
				c-0.003,0.001-0.006,0.002-0.009,0.003c-0.544,0.174-1.07,0.437-1.558,0.679l-0.046,0.02c-1.496,0.745-2.74,1.344-4.263,0.115
				l-1.22-0.986c-0.421-0.336-0.489-0.951-0.152-1.372c0.002-0.003,0.004-0.005,0.006-0.008c0.349-0.42,0.968-0.484,1.395-0.144
				l1.221,0.986c0.534,0.431,1.25,0.093,2.115-0.336l0.054-0.029C64.568,54.782,65.166,54.485,65.857,54.264L65.857,54.264z"/>
			<path fill="#FFFFFF" d="M72.498,44.3c3.195,3.17,5.178,7.55,5.178,12.386c0,3.716-1.191,7.333-3.4,10.323
				c-1.821,2.472-3.303,4.095-4.449,5.355c-2.068,2.266-2.976,3.259-2.976,6.573c-0.003,0.545-0.447,0.984-0.993,0.982H54.229
				c-0.546,0.003-0.991-0.438-0.995-0.982c0-3.283-0.925-4.285-2.978-6.516l-0.002-0.002l-0.002,0.002
				c-1.16-1.259-2.655-2.881-4.524-5.414c-2.209-2.988-3.4-6.607-3.398-10.324c0-2.366,0.478-4.63,1.343-6.697l0.019-0.04
				c0.892-2.114,2.188-4.033,3.818-5.647c1.646-1.629,3.596-2.919,5.739-3.798V40.5c2.144-0.881,4.438-1.333,6.758-1.331
				C64.683,39.167,69.172,41.01,72.498,44.3L72.498,44.3z M75.688,56.686c0-4.293-1.758-8.179-4.595-10.993
				c-1.459-1.448-3.188-2.595-5.09-3.377c-1.905-0.78-3.944-1.18-6.003-1.176c-2.13,0-4.157,0.418-5.997,1.175v-0.002l-0.004,0.002
				c-1.901,0.781-3.631,1.929-5.089,3.377c-1.444,1.429-2.598,3.126-3.392,4.996l-0.02,0.053c-0.785,1.883-1.188,3.903-1.188,5.943
				c0,1.686,0.271,3.31,0.77,4.822c0.514,1.557,1.271,3.021,2.243,4.342c1.794,2.432,3.255,4.019,4.391,5.252l-0.002,0.002
				c2.21,2.395,3.31,3.59,3.479,6.853h9.69c0.17-3.283,1.248-4.47,3.468-6.899c1.11-1.218,2.535-2.781,4.321-5.201
				c0.973-1.319,1.729-2.785,2.241-4.341c0.501-1.516,0.771-3.139,0.771-4.826H75.688z M56.793,92
				c-0.546,0.002-0.99-0.438-0.993-0.984c0.003-0.545,0.447-0.986,0.993-0.983h6.416c0.546-0.003,0.99,0.438,0.993,0.983
				c-0.005,0.547-0.448,0.986-0.993,0.984H56.793z M72.188,37.295c-0.275,0.47-0.878,0.63-1.352,0.361
				c-0.47-0.267-0.634-0.864-0.367-1.334c0.001-0.001,0.002-0.003,0.003-0.005l1.925-3.304c0.277-0.469,0.878-0.629,1.353-0.36
				c0.474,0.268,0.635,0.869,0.362,1.339L72.188,37.295z M49.528,36.32c0.271,0.467,0.109,1.063-0.356,1.332
				c-0.002,0.001-0.005,0.003-0.007,0.004c-0.474,0.269-1.073,0.108-1.351-0.36l-1.924-3.304c-0.27-0.468-0.109-1.065,0.358-1.335
				c0.002-0.001,0.004-0.002,0.006-0.003c0.474-0.269,1.074-0.108,1.351,0.361L49.528,36.32L49.528,36.32z M40.871,44.176
				c0.472,0.268,0.636,0.87,0.363,1.339c-0.274,0.469-0.877,0.629-1.35,0.36l-3.333-1.906c-0.47-0.264-0.636-0.858-0.372-1.327
				c0.002-0.003,0.003-0.006,0.005-0.01c0.275-0.47,0.879-0.631,1.354-0.361L40.871,44.176z M80.116,45.876
				c-0.475,0.27-1.076,0.108-1.354-0.361c-0.271-0.468-0.11-1.066,0.357-1.336c0.002-0.001,0.005-0.002,0.007-0.004l3.334-1.906
				c0.474-0.27,1.075-0.109,1.352,0.36c0.271,0.469,0.109,1.067-0.358,1.337c-0.002,0.001-0.004,0.002-0.005,0.003L80.116,45.876z"
				/>
			<path fill="#FFFFFF" d="M49.68,60.576c0.21,0.498-0.022,1.071-0.521,1.281c-0.002,0.001-0.005,0.002-0.008,0.002
				c-0.502,0.209-1.079-0.023-1.295-0.523c-0.681-1.608-1.034-3.335-1.039-5.082c0.004-0.545,0.448-0.985,0.993-0.984
				c0.546-0.001,0.99,0.438,0.993,0.984c0,0.77,0.077,1.51,0.22,2.21C49.172,59.195,49.395,59.905,49.68,60.576L49.68,60.576z
				 M49.68,51.932c-0.216,0.5-0.793,0.733-1.295,0.523c-0.499-0.207-0.736-0.779-0.529-1.278c0.001-0.002,0.001-0.004,0.002-0.006
				c0.33-0.773,0.734-1.513,1.206-2.209l0.002-0.002l-0.002-0.002c0.476-0.697,1.017-1.348,1.614-1.942
				c0.602-0.594,1.259-1.129,1.962-1.597v-0.002c0.688-0.46,1.438-0.864,2.233-1.196c1.624-0.678,3.365-1.029,5.127-1.031
				c0.546-0.001,0.99,0.439,0.993,0.985c-0.005,0.546-0.448,0.986-0.993,0.984c-0.778,0-1.527,0.076-2.233,0.215
				c-0.739,0.146-1.453,0.37-2.127,0.653c-0.656,0.274-1.29,0.617-1.892,1.019h-0.002c-0.598,0.399-1.153,0.855-1.662,1.362
				c-0.512,0.504-0.972,1.057-1.374,1.65l-0.002-0.002C50.305,50.649,49.959,51.276,49.68,51.932L49.68,51.932z"/>
		</g>
		<g enable-background="new    ">
			<path fill="#FFFFFF" d="M124.454,38.64l-0.773,1.406c-2.537-1.043-4.348-1.948-5.432-2.716c-1.928,1.225-3.65,2.13-5.168,2.716
				l-1.011-1.371c1.857-0.592,3.507-1.383,4.948-2.373c-1.055-0.979-1.966-2.358-2.733-4.14c-1.107,2.883-2.613,5.312-4.518,7.286
				l-1.354-1.134c2.531-2.994,4.339-6.545,5.423-10.652h-5.08V26.08h5.238c0.135-0.533,0.231-1.189,0.29-1.969l1.617,0.018
				c-0.053,0.592-0.135,1.242-0.246,1.951h8.763v1.582h-9.018c-0.211,1.102-0.384,1.898-0.519,2.391h7.471v1.6
				c-0.973,2.074-1.963,3.618-2.971,4.632C120.965,37.298,122.655,38.083,124.454,38.64z M120.657,31.652h-4.966
				c0.855,1.764,1.658,3,2.408,3.709C119.136,34.324,119.989,33.088,120.657,31.652z"/>
			<path fill="#FFFFFF" d="M142.436,34.482h-15.68v-1.318h4.069c-0.176-0.258-0.416-0.557-0.721-0.896l0.923-0.483h-4.192v-1.318
				h6.943v-0.949h-6.1v-1.301h6.1v-0.896h-6.627v-1.301h14.818v1.301h-6.557v0.896h6.073v1.301h-6.073v0.949h6.97v1.318h-4.14
				l0.879,0.396c-0.311,0.416-0.574,0.744-0.791,0.984h4.104V34.482z M140.872,39.932h-1.582v-0.624h-9.378v0.624h-1.626v-4.535
				h12.586V39.932z M133.507,25.052l-1.222,0.861c-0.715-0.34-1.567-0.65-2.558-0.932l1.248-0.923
				C131.837,24.34,132.68,24.671,133.507,25.052z M139.29,38.007V36.68h-9.378v1.327H139.29z M137.303,31.784h-5.484
				c0.387,0.504,0.709,0.964,0.967,1.38h3.48C136.518,32.871,136.864,32.411,137.303,31.784z M139.378,24.727
				c-0.932,0.492-1.79,0.876-2.575,1.151l-1.327-0.844c0.861-0.293,1.658-0.642,2.391-1.046L139.378,24.727z"/>
			<path fill="#FFFFFF" d="M151.524,39.756h-1.547v-1.187h-3.252v1.362h-1.591V26.836h1.608c0.451-0.832,0.803-1.746,1.055-2.742
				l1.661,0.272c-0.088,0.568-0.369,1.392-0.844,2.47h2.909V39.756z M149.977,31.731V28.4h-3.252v3.331H149.977z M149.977,37.022
				v-3.779h-3.252v3.779H149.977z M160.225,26.924c-0.012,1.723-0.073,3.957-0.185,6.701c-0.111,2.746-0.275,4.364-0.492,4.856
				s-0.546,0.854-0.989,1.085s-1.519,0.354-3.23,0.365l-0.598-1.582l2.408-0.018c0.229,0,0.472-0.097,0.729-0.29
				s0.451-1.497,0.58-3.911s0.19-4.295,0.185-5.643h-3.612c-0.563,1.43-1.198,2.648-1.907,3.656l-1.23-1.099
				c1.289-2.086,2.197-4.415,2.725-6.987l1.582,0.343c-0.117,0.609-0.328,1.45-0.633,2.522H160.225z M157.615,34.966l-1.406,0.905
				c-0.773-1.547-1.603-2.839-2.487-3.876l1.406-0.879C156.323,32.61,157.152,33.894,157.615,34.966z"/>
			<path fill="#FFFFFF" d="M173.435,27.354l-0.923,1.31c-0.955-0.773-1.614-1.271-1.978-1.494v1.028h-4.28v-0.703
				c-0.979,0.697-1.893,1.245-2.742,1.644l-0.967-1.318c2.297-1.078,4.025-2.35,5.186-3.814l1.67,0.343
				c-0.053,0.123-0.132,0.237-0.237,0.343C170.681,25.459,172.105,26.347,173.435,27.354z M172.284,39.914h-1.494V39.22h-3.762
				v0.694h-1.512v-3.612c-0.223,1.523-0.776,2.783-1.661,3.779l-1.222-1.063c1.02-1.23,1.529-2.892,1.529-4.983v-5.115h8.104v5.405
				h-6.574c0,0.199-0.012,0.475-0.035,0.826h6.627V39.914z M170.676,31.046V30.22h-4.983v0.826H170.676z M170.676,33.041v-0.809
				h-4.983v0.809H170.676z M170.192,26.977c-0.715-0.463-1.386-0.847-2.013-1.151c-0.275,0.305-0.697,0.688-1.266,1.151H170.192z
				 M170.79,37.937v-1.459h-3.779v1.459H170.79z M177.97,38.534c0,0.492-0.18,0.851-0.541,1.077
				c-0.36,0.225-1.121,0.338-2.281,0.338c-0.346,0-0.715-0.012-1.107-0.035l-0.501-1.547c0.563,0.053,1.063,0.079,1.503,0.079
				c0.627,0,1.011-0.048,1.151-0.146c0.141-0.096,0.211-0.247,0.211-0.452V24.164h1.564V38.534z M175.255,36.645h-1.529V25.5h1.529
				V36.645z"/>
			<path fill="#FFFFFF" d="M185.766,24.401c-0.258,0.732-0.507,1.386-0.747,1.96l-0.765,1.784v11.716h-1.626v-8.965
				c-0.463,0.645-0.864,1.143-1.204,1.494l-0.756-1.67c1.494-1.84,2.651-4.066,3.472-6.68L185.766,24.401z M196.401,27.952h-5.598
				v2.646h5.186v1.494h-5.186v2.61h5.203v1.468h-5.203v3.709h-1.618V27.952h-0.615c-0.867,1.682-1.731,3.006-2.593,3.973
				l-1.169-1.116c1.553-1.863,2.73-4.113,3.533-6.75l1.6,0.343c-0.088,0.363-0.322,1.049-0.703,2.057h7.163V27.952z"/>
			<path fill="#FFFFFF" d="M203.959,35.432c-1.371,0.949-2.996,1.898-4.877,2.848l-0.467-1.441c0.545-0.264,1.205-0.618,1.979-1.063
				v-4.298h-1.529v-1.512h1.529v-3.472h-1.82v-1.477h4.957v1.477h-1.643v3.472h1.459v1.512h-1.459v3.437
				c0.504-0.311,1.063-0.688,1.678-1.134L203.959,35.432z M213.662,34.676h-4.877c-0.252,0.375-0.75,0.905-1.494,1.591v1.775
				c0.744-0.229,1.523-0.498,2.338-0.809l0.201,1.424c-1.6,0.65-2.902,1.069-3.91,1.257l-0.449-1.222
				c0.229-0.152,0.344-0.369,0.344-0.65v-0.677c-0.563,0.357-1.289,0.741-2.18,1.151l-0.791-1.371
				c1.471-0.551,2.797-1.374,3.98-2.47h-2.268v-3.384h9.105V34.676z M214.436,30.466h-10.459v-1.31h10.459V30.466z M213.953,28.383
				h-9.545v-3.894h9.545V28.383z M207.115,27.064v-1.257h-1.195v1.257H207.115z M212.098,33.401V32.61h-5.977v0.791H212.098z
				 M209.778,27.064v-1.257h-1.23v1.257H209.778z M214.621,38.728l-0.818,1.301c-1.119-0.34-2.104-0.942-2.953-1.806
				c-0.85-0.864-1.395-1.807-1.635-2.826l1.371-0.343c0.199,0.598,0.428,1.049,0.686,1.354c0.586-0.34,1.205-0.826,1.855-1.459
				l1.098,0.993c-0.486,0.486-1.154,0.996-2.004,1.529C212.737,37.928,213.537,38.347,214.621,38.728z M212.424,27.064v-1.257
				h-1.188v1.257H212.424z"/>
			<path fill="#FFFFFF" d="M221.713,36.574c-1.465,0.797-3.014,1.538-4.648,2.224l-0.449-1.529c0.779-0.311,1.352-0.557,1.715-0.738
				V30.22h-1.477v-1.538h1.477v-4.518h1.564v4.518h1.291v1.538h-1.291v5.572c0.551-0.275,1.096-0.557,1.635-0.844L221.713,36.574z
				 M232.586,37.093c-0.076,0.855-0.197,1.474-0.361,1.854s-0.381,0.636-0.65,0.765s-0.885,0.193-1.846,0.193
				c-0.721,0-1.248-0.09-1.582-0.269s-0.5-0.499-0.5-0.962v-3.111h-1.723c-0.076,1.266-0.461,2.263-1.156,2.993
				c-0.693,0.729-1.859,1.249-3.494,1.56l-0.773-1.424c1.354-0.17,2.318-0.497,2.893-0.979c0.574-0.484,0.902-1.2,0.984-2.149
				h-2.057v-5.476h9.324v5.476h-2.443v2.461c0,0.305,0.162,0.457,0.484,0.457c0.592,0,0.961-0.086,1.107-0.259
				s0.246-0.717,0.299-1.631L232.586,37.093z M232.278,29.314h-10.582v-1.327h2.496c-0.211-0.51-0.418-0.943-0.623-1.301h-1.266
				V25.28h3.797c-0.076-0.264-0.203-0.58-0.379-0.949l1.715-0.308c0.141,0.223,0.289,0.642,0.447,1.257h3.779v1.406h-1.256
				c-0.152,0.41-0.357,0.844-0.615,1.301h2.486V29.314z M230.045,32.215v-0.756h-6.1v0.756H230.045z M230.045,34.192v-0.791h-6.1
				v0.791H230.045z M228.569,26.687h-3.189c0.211,0.34,0.416,0.773,0.615,1.301h1.924C228.194,27.56,228.41,27.126,228.569,26.687z"
				/>
		</g>
		<g enable-background="new    ">
			<path fill="#FFFFFF" d="M123.173,64.733l-0.178,0.697h-4.354c-1.773,0-3.04-0.146-3.801-0.438s-1.358-0.668-1.791-1.128
				c-0.433,0.647-0.987,1.287-1.661,1.921l-0.533-0.52c1.49-1.358,2.409-2.862,2.755-4.512h-2.365v-0.67
				c0.961-1.185,1.652-2.121,2.071-2.81h-2.393v-0.731h3.247v0.731c-0.652,1.012-1.319,1.948-2.003,2.81h2.188v0.67
				c-0.287,1.08-0.599,1.916-0.937,2.509c0.365,0.424,0.899,0.774,1.603,1.053s1.84,0.417,3.408,0.417H123.173z M113.821,55.621
				l-0.561,0.417c-0.424-0.656-1.053-1.352-1.887-2.085l0.485-0.492C112.689,54.194,113.343,54.915,113.821,55.621z M123.05,58.745
				l-0.349,0.615c-1.395-1.021-2.646-1.755-3.753-2.201v2.112h2.235v0.69l-0.458,0.793h1.511c-0.091,0.921-0.18,1.559-0.267,1.914
				s-0.235,0.631-0.444,0.827s-0.437,0.313-0.68,0.352c-0.244,0.039-0.876,0.059-1.897,0.059l-0.212-0.711
				c0.26,0.009,0.52,0.014,0.779,0.014c0.77,0,1.211-0.037,1.323-0.113c0.112-0.074,0.211-0.169,0.297-0.283
				s0.191-0.565,0.314-1.354h-1.832l0.813-1.497h-2.27c-0.137,1.759-1.107,3.092-2.912,3.999l-0.465-0.615
				c0.756-0.314,1.382-0.786,1.876-1.415s0.742-1.285,0.742-1.969h-1.702v-0.69h2.529v-2.099c-1.012,0.907-2.263,1.668-3.753,2.283
				l-0.376-0.602c1.508-0.588,2.782-1.354,3.821-2.297h-3.124v-0.684h3.432v-1.08c-1.5,0.082-2.422,0.123-2.769,0.123l-0.239-0.656
				c2.52-0.014,4.68-0.269,6.48-0.766l0.294,0.629c-0.916,0.26-1.932,0.451-3.049,0.574v1.176h3.808v0.684h-3.575
				C120.47,57.123,121.76,57.852,123.05,58.745z"/>
			<path fill="#FFFFFF" d="M137.227,64.788l-0.253,0.69c-0.734,0.009-1.483,0.014-2.249,0.014c-1.422,0-2.625-0.015-3.609-0.045
				c-0.984-0.029-1.789-0.167-2.413-0.413s-1.194-0.608-1.709-1.087c-0.442,0.656-0.973,1.256-1.593,1.798l-0.547-0.492
				c1.358-1.203,2.263-2.716,2.714-4.539h-2.365v-0.67c1.002-1.217,1.732-2.192,2.188-2.926h-2.413v-0.67h3.322v0.67
				c-0.866,1.208-1.595,2.179-2.188,2.912h2.215v0.684c-0.246,0.993-0.574,1.866-0.984,2.618c0.433,0.451,0.974,0.8,1.624,1.046
				s1.524,0.38,2.625,0.399c1.101,0.021,2.282,0.031,3.544,0.031C135.883,64.809,136.58,64.802,137.227,64.788z M127.835,55.478
				l-0.547,0.465c-0.456-0.665-1.112-1.352-1.969-2.058l0.513-0.479C126.793,54.208,127.461,54.898,127.835,55.478z M136.503,63.011
				c0,0.369-0.105,0.621-0.314,0.755c-0.209,0.135-0.581,0.202-1.114,0.202c-0.182,0-0.426-0.007-0.731-0.021l-0.232-0.725
				c0.201,0.027,0.456,0.041,0.766,0.041c0.451,0,0.718-0.023,0.8-0.072c0.082-0.047,0.123-0.14,0.123-0.276v-4.313h-5.852v5.346
				h-0.697v-6.002h0.909v-4.143h5.435v4.143h0.909V63.011z M134.862,55.717v-1.244h-3.972v3.473h1.511v-2.229H134.862z
				 M134.554,62.566h-3.343v-2.775h3.343V62.566z M133.885,61.917v-1.47h-2.003v1.47H133.885z M134.862,57.945v-1.524h-1.75v1.524
				H134.862z"/>
			<path fill="#FFFFFF" d="M142.197,56.421c-0.734,3.163-1.643,5.378-2.728,6.645l-0.602-0.444c1.057-1.308,1.925-3.44,2.604-6.398
				L142.197,56.421z M145.588,64.706c0,0.237-0.078,0.444-0.232,0.622s-0.326,0.293-0.513,0.346
				c-0.187,0.052-0.533,0.078-1.039,0.078c-0.406,0-0.729-0.009-0.971-0.027l-0.294-0.738c1.226,0.032,1.917,0.012,2.071-0.062
				s0.232-0.217,0.232-0.431v-11.02h0.745V64.706z M151.145,62.717l-0.711,0.308c-0.647-2.247-1.442-4.416-2.386-6.508l0.718-0.294
				C149.614,58.118,150.407,60.283,151.145,62.717z"/>
			<path fill="#FFFFFF" d="M159.123,60.741l-0.362,0.561c-0.725-0.511-1.638-1.094-2.741-1.75c-0.811,0.738-1.746,1.374-2.803,1.907
				l-0.349-0.561c0.971-0.528,1.816-1.099,2.536-1.709c-0.46-0.265-0.857-0.483-1.189-0.656c-0.283,0.337-0.508,0.583-0.677,0.738
				l-0.444-0.458c0.789-0.812,1.447-1.825,1.976-3.042l0.643,0.226c-0.119,0.265-0.235,0.499-0.349,0.704h2.687v0.643
				c-0.492,0.638-0.991,1.212-1.497,1.723C157.596,59.69,158.453,60.249,159.123,60.741z M158.624,56.332h-0.718v-1.189h-4.02v1.217
				h-0.697v-1.914h2.563c-0.201-0.41-0.36-0.682-0.479-0.813l0.643-0.253c0.237,0.378,0.419,0.733,0.547,1.066h2.16V56.332z
				 M157.92,65.67h-0.711v-0.697h-2.563v0.697h-0.725v-4.156h3.999V65.67z M157.168,57.344h-2.16
				c-0.096,0.178-0.226,0.392-0.39,0.643c0.433,0.214,0.871,0.451,1.313,0.711C156.377,58.282,156.789,57.831,157.168,57.344z
				 M157.209,64.289v-2.078h-2.563v2.078H157.209z M165.118,54.5h-2.591c-0.127,0.615-0.276,1.185-0.444,1.709h2.352v6.815h-3.097
				l0.417,0.424c-0.943,1.053-1.773,1.803-2.488,2.249l-0.52-0.513c0.807-0.487,1.613-1.208,2.42-2.16h-1.524v-6.815h1.709
				c0.246-0.675,0.401-1.244,0.465-1.709h-2.618v-0.67h5.92V54.5z M163.744,58.157v-1.292h-3.37v1.292H163.744z M163.744,60.153
				v-1.367h-3.37v1.367H163.744z M163.744,62.382v-1.565h-3.37v1.565H163.744z M165.2,65.212l-0.499,0.561
				c-0.551-0.638-1.244-1.27-2.078-1.894l0.438-0.533C164.068,64.07,164.781,64.692,165.2,65.212z"/>
			<path fill="#FFFFFF" d="M172.747,57.891c-0.479,0.183-1.165,0.383-2.058,0.602l-0.28-0.574c0.132-0.123,0.198-0.255,0.198-0.396
				v-1.101h-1.162c-0.045,1.194-0.713,2.09-2.003,2.687l-0.417-0.547c0.611-0.265,1.049-0.557,1.316-0.879
				c0.267-0.32,0.4-0.741,0.4-1.261h-1.675v-0.602h2.741v-0.731h-1.579c-0.228,0.282-0.355,0.438-0.383,0.465l-0.588-0.41
				c0.497-0.446,0.902-0.991,1.217-1.634l0.608,0.294c-0.187,0.374-0.314,0.606-0.383,0.697h1.107v-0.978h0.67V54.5h2.133v0.588
				h-2.133v0.731h2.119v0.602h-1.306v1.258c0.456-0.109,0.914-0.244,1.374-0.403L172.747,57.891z M177.183,63.77h-5.64l0.451,0.52
				c-1.39,0.733-2.851,1.246-4.382,1.538l-0.424-0.704c1.623-0.26,3.028-0.711,4.218-1.354h-2.522v-4.901h8.299V63.77z
				 M176.472,60.324v-0.827h-6.891v0.827H176.472z M176.472,61.739v-0.827h-6.891v0.827H176.472z M176.472,63.154V62.3h-6.891v0.854
				H176.472z M179.186,57.357c-0.018,0.424-0.12,0.715-0.304,0.871c-0.185,0.158-0.527,0.236-1.029,0.236
				c-0.479,0-0.795-0.054-0.95-0.16c-0.155-0.107-0.232-0.316-0.232-0.626v-1.23h-1.21c-0.201,1.13-0.871,1.825-2.01,2.085
				l-0.396-0.574c0.524-0.104,0.916-0.256,1.176-0.455c0.26-0.197,0.438-0.55,0.533-1.056h-1.668v-0.615h2.591v-0.718h-1.695
				c-0.16,0.219-0.294,0.388-0.403,0.506l-0.561-0.376c0.447-0.46,0.838-1.044,1.176-1.75l0.574,0.232
				c-0.114,0.319-0.235,0.576-0.362,0.772h1.271v-0.978h0.69V54.5h2.434v0.615h-2.434v0.718h2.741v0.615h-1.764v1.189
				c0,0.128,0.155,0.191,0.465,0.191c0.273,0,0.456-0.052,0.547-0.153c0.091-0.104,0.155-0.303,0.191-0.599L179.186,57.357z
				 M178.838,65.041l-0.376,0.704c-1.148-0.433-2.536-0.743-4.163-0.93l0.41-0.656C176.349,64.392,177.726,64.686,178.838,65.041z"
				/>
			<path fill="#FFFFFF" d="M186.972,63.571c-1.932,0.606-3.94,1.153-6.022,1.641l-0.253-0.704c0.369-0.063,0.711-0.148,1.025-0.253
				V53.871h4.566v9.14c0.219-0.05,0.447-0.114,0.684-0.191V63.571z M185.544,56.934v-2.338h-3.083v2.338H185.544z M185.544,60.167
				v-2.543h-3.083v2.543H185.544z M185.544,63.236v-2.352h-3.083v3.206C183.741,63.758,184.769,63.474,185.544,63.236z
				 M192.639,56.182c0,2.083-0.039,3.987-0.119,5.715s-0.171,2.726-0.273,2.994s-0.261,0.47-0.475,0.602
				c-0.215,0.132-0.606,0.198-1.176,0.198c-0.292,0-0.595-0.012-0.91-0.034l-0.253-0.711l1.6,0.014c0.141,0,0.277-0.063,0.41-0.188
				c0.132-0.126,0.207-0.291,0.225-0.496l0.137-2.543c0.073-1.49,0.109-3.104,0.109-4.84h-2.016c-0.041,1.896-0.3,3.518-0.776,4.863
				c-0.476,1.348-1.225,2.67-2.246,3.969l-0.602-0.458c1.053-1.403,1.795-2.735,2.229-3.995c0.433-1.261,0.649-2.72,0.649-4.379
				h-2.112v-0.711h2.126c0.055-1.062,0.071-1.964,0.048-2.707h0.738c0.014,0.793,0.004,1.695-0.027,2.707H192.639z"/>
			<path fill="#FFFFFF" d="M207.358,65l-0.396,0.684c-2.502-0.479-4.462-1.146-5.879-2.003c-1.509,0.962-3.437,1.654-5.783,2.078
				l-0.541-0.731c2.22-0.306,4.104-0.907,5.654-1.805c-1.477-1.144-2.644-2.47-3.5-3.979h-0.67v-0.766h4.449v-2.365h-5.742v-0.745
				h5.742v-2.003h0.725v2.003h5.729v0.745h-5.729v2.365h3.828v0.766c-0.988,1.649-2.162,2.967-3.52,3.951
				C203.019,63.961,204.897,64.563,207.358,65z M204.364,59.244h-6.557c0.998,1.567,2.095,2.739,3.289,3.514
				C202.458,61.787,203.547,60.616,204.364,59.244z"/>
			<path fill="#FFFFFF" d="M213.373,59.75l-1.648,0.725v4.272c0,0.246-0.078,0.468-0.234,0.667
				c-0.158,0.197-0.574,0.297-1.248,0.297c-0.232,0-0.486-0.009-0.76-0.027l-0.197-0.697l1.25,0.027c0.307,0,0.459-0.13,0.459-0.39
				v-3.849c-0.648,0.228-1.311,0.438-1.99,0.629l-0.123-0.718c0.602-0.15,1.307-0.383,2.113-0.697v-3.015h-2.004v-0.684h2.004
				v-2.782h0.73v2.782h1.471v0.684h-1.471v2.734c0.629-0.255,1.16-0.49,1.594-0.704L213.373,59.75z M220.948,55.86h-3.473v2.058h3
				v0.684h-6.664v-0.684h2.926V55.86h-3.303v-0.704h3.303v-1.62h0.738v1.62h3.473V55.86z M221.131,61.179h-1.709v3.459
				c0,0.364-0.123,0.643-0.371,0.834c-0.25,0.191-0.686,0.287-1.311,0.287h-0.936l-0.178-0.731c1.029,0.032,1.633,0.012,1.809-0.062
				c0.174-0.073,0.262-0.221,0.262-0.444v-3.343h-5.264v-0.704h5.264v-1.367h0.725v1.367h1.709V61.179z M216.709,63.77l-0.615,0.458
				c-0.43-0.679-1.055-1.374-1.881-2.085l0.588-0.444C215.549,62.313,216.184,63.004,216.709,63.77z"/>
			<path fill="#FFFFFF" d="M231.106,56.318l-0.383,0.643c-1.021-0.989-2.182-1.885-3.48-2.687c-0.314,0.364-0.828,0.839-1.545,1.422
				h3.145v0.636h-3.199v-0.595c-0.852,0.629-1.631,1.14-2.338,1.531l-0.383-0.629c1.814-0.979,3.197-2.076,4.15-3.288l0.771,0.191
				c-0.031,0.068-0.07,0.123-0.115,0.164C229.1,54.623,230.225,55.493,231.106,56.318z M230.196,65.711h-0.676V65h-4.047v0.711
				h-0.697v-3.076c-0.225,1.299-0.65,2.313-1.279,3.042l-0.52-0.458c0.871-1.331,1.307-2.951,1.307-4.86v-3.213h5.912v3.883h-5.215
				c-0.01,0.237-0.047,0.59-0.109,1.06h5.324V65.711z M229.506,58.738v-0.916h-4.492v0.916H229.506z M229.506,60.365v-0.957h-4.492
				v0.957H229.506z M229.52,64.337v-1.586h-4.047v1.586H229.52z M234.824,64.501c0,0.323-0.084,0.586-0.254,0.786
				c-0.191,0.224-0.457,0.351-0.799,0.383c-0.402,0.019-0.809,0.029-1.225,0.034h-0.553l-0.268-0.759
				c0.607,0.019,1.256,0.014,1.949-0.014c0.117-0.005,0.221-0.063,0.307-0.174c0.088-0.112,0.131-0.225,0.131-0.339V53.475h0.711
				V64.501z M232.465,63.12l-0.697,0.007v-9.003h0.697V63.12z"/>
			<path fill="#FFFFFF" d="M240.846,53.604c-0.295,0.67-0.574,1.276-0.834,1.818l-0.389,0.772v9.529h-0.752v-8.189
				c-0.799,1.126-1.34,1.841-1.627,2.146l-0.404-0.704c1.332-1.554,2.432-3.425,3.303-5.612L240.846,53.604z M249.131,56.079h-4.436
				v2.44h3.82v0.711h-3.82v2.618h4.088v0.731h-4.088v3.145h-0.746v-9.646h-1.299c-0.455,1.058-1.119,2.151-1.988,3.281l-0.492-0.602
				c1.152-1.422,2.059-3.233,2.721-5.435l0.656,0.28c-0.082,0.31-0.279,0.894-0.588,1.75h6.172V56.079z"/>
			<path fill="#FFFFFF" d="M263.186,65.157l-0.547,0.554c-2.912-2.051-4.783-4.869-5.611-8.456
				c-0.594,3.272-2.449,6.082-5.572,8.429l-0.506-0.602c1.063-0.725,2.033-1.632,2.912-2.721c0.881-1.089,1.551-2.289,2.01-3.6
				c0.461-1.31,0.707-3.081,0.738-5.314h0.779c-0.027,2.584,0.488,4.873,1.545,6.867C259.992,62.308,261.408,63.922,263.186,65.157z
				"/>
			<path fill="#FFFFFF" d="M269.797,65.431h-0.705v-1.203h-3.021v1.483h-0.711v-9.926h1.299c0.352-0.624,0.684-1.427,0.998-2.406
				l0.697,0.144c-0.164,0.492-0.48,1.246-0.949,2.263h2.393V65.431z M269.092,59.497v-3.008h-3.021v3.008H269.092z M269.092,63.517
				v-3.315h-3.021v3.315H269.092z M276.811,55.799c-0.055,2.097-0.156,4.045-0.305,5.845s-0.297,2.859-0.447,3.179
				s-0.344,0.546-0.578,0.68c-0.234,0.135-0.68,0.202-1.336,0.202c-0.287,0-0.664-0.007-1.129-0.021l-0.225-0.711
				c0.383,0.014,0.795,0.021,1.236,0.021c0.416,0,0.682-0.005,0.797-0.014c0.117-0.009,0.238-0.067,0.365-0.175
				c0.129-0.106,0.219-0.232,0.273-0.375c0.055-0.145,0.129-0.681,0.219-1.61c0.092-0.93,0.166-1.954,0.227-3.073
				c0.059-1.118,0.102-2.204,0.129-3.257h-3.65c-0.486,0.971-1.053,1.894-1.695,2.769l-0.574-0.403
				c1.227-1.608,2.094-3.402,2.605-5.38l0.711,0.185c-0.229,0.747-0.484,1.461-0.766,2.14H276.811z M274.233,62.074l-0.588,0.417
				c-0.451-1.039-1.127-2.126-2.029-3.261l0.602-0.39C273.055,59.853,273.727,60.931,274.233,62.074z"/>
			<path fill="#FFFFFF" d="M291.131,54.473h-4.9c-0.184,0.638-0.389,1.194-0.615,1.668h4.449v4.956h-3.396v3.514
				c0,0.278-0.109,0.525-0.324,0.741c-0.217,0.217-0.701,0.325-1.453,0.325c-0.242,0-0.477-0.012-0.705-0.034l-0.279-0.725
				l1.6-0.027c0.127,0,0.232-0.055,0.318-0.164c0.084-0.109,0.125-0.232,0.125-0.369v-3.261h-3.445v-4.956h2.283
				c0.279-0.465,0.504-1.021,0.678-1.668h-4.689v4.956c0,2.552-0.404,4.657-1.211,6.316l-0.67-0.396
				c0.369-0.656,0.654-1.534,0.852-2.636c0.199-1.1,0.297-2.182,0.297-3.243v-5.694h11.088V54.473z M284.467,62.211
				c-0.621,0.943-1.475,1.896-2.564,2.857l-0.602-0.561c1.172-0.952,2.008-1.839,2.51-2.659L284.467,62.211z M289.34,58.226v-1.388
				h-6.117v1.388H289.34z M289.34,60.379v-1.47h-6.117v1.47H289.34z M291.117,64.624l-0.588,0.499
				c-0.643-1.007-1.463-1.921-2.461-2.741l0.602-0.547C289.664,62.773,290.481,63.703,291.117,64.624z"/>
			<path fill="#FFFFFF" d="M301.106,56.318l-0.383,0.643c-1.021-0.989-2.182-1.885-3.48-2.687c-0.314,0.364-0.828,0.839-1.545,1.422
				h3.145v0.636h-3.199v-0.595c-0.852,0.629-1.631,1.14-2.338,1.531l-0.383-0.629c1.814-0.979,3.197-2.076,4.15-3.288l0.771,0.191
				c-0.031,0.068-0.07,0.123-0.115,0.164C299.1,54.623,300.225,55.493,301.106,56.318z M300.196,65.711h-0.676V65h-4.047v0.711
				h-0.697v-3.076c-0.225,1.299-0.65,2.313-1.279,3.042l-0.52-0.458c0.871-1.331,1.307-2.951,1.307-4.86v-3.213h5.912v3.883h-5.215
				c-0.01,0.237-0.047,0.59-0.109,1.06h5.324V65.711z M299.506,58.738v-0.916h-4.492v0.916H299.506z M299.506,60.365v-0.957h-4.492
				v0.957H299.506z M299.52,64.337v-1.586h-4.047v1.586H299.52z M304.824,64.501c0,0.323-0.084,0.586-0.254,0.786
				c-0.191,0.224-0.457,0.351-0.799,0.383c-0.402,0.019-0.809,0.029-1.225,0.034h-0.553l-0.268-0.759
				c0.607,0.019,1.256,0.014,1.949-0.014c0.117-0.005,0.221-0.063,0.307-0.174c0.088-0.112,0.131-0.225,0.131-0.339V53.475h0.711
				V64.501z M302.465,63.12l-0.697,0.007v-9.003h0.697V63.12z"/>
			<path fill="#FFFFFF" d="M310.846,53.604c-0.295,0.67-0.574,1.276-0.834,1.818l-0.389,0.772v9.529h-0.752v-8.189
				c-0.799,1.126-1.34,1.841-1.627,2.146l-0.404-0.704c1.332-1.554,2.432-3.425,3.303-5.612L310.846,53.604z M319.131,56.079h-4.436
				v2.44h3.82v0.711h-3.82v2.618h4.088v0.731h-4.088v3.145h-0.746v-9.646h-1.299c-0.455,1.058-1.119,2.151-1.988,3.281l-0.492-0.602
				c1.152-1.422,2.059-3.233,2.721-5.435l0.656,0.28c-0.082,0.31-0.279,0.894-0.588,1.75h6.172V56.079z"/>
			<path fill="#FFFFFF" d="M326.227,65.697h-0.725v-0.991h-3.096v0.991h-0.752v-6.132h4.572V65.697z M325.489,63.995v-3.698h-3.082
				v3.698H325.489z M331.367,57.973h-8.244v-4.156h8.244V57.973z M330.637,57.275v-2.748h-6.775v2.748H330.637z M332.489,65.697
				h-0.744v-0.991h-3.117v0.991h-0.746v-6.132h4.607V65.697z M331.744,63.995v-3.698h-3.117v3.698H331.744z"/>
			<path fill="#FFFFFF" d="M340.836,60.885c-0.338-0.178-0.506-0.403-0.506-0.677c0-0.132,0.057-0.268,0.17-0.407
				c0.115-0.139,0.275-0.208,0.486-0.208c0.438,0,0.656,0.287,0.656,0.861c0,0.47-0.275,0.923-0.828,1.36l-0.293-0.226
				C340.731,61.311,340.836,61.076,340.836,60.885z"/>
		</g>
		<g enable-background="new    ">
			<path fill="#FFFFFF" d="M122.516,84.651c0,0.46-0.162,0.757-0.485,0.889c-0.26,0.073-0.594,0.115-1.001,0.126
				c-0.408,0.012-0.944,0.018-1.61,0.018l-0.294-0.738c0.246,0.019,1.012,0.027,2.297,0.027c0.25,0,0.376-0.121,0.376-0.362V74.5
				h-9.42v11.211h-0.711V73.803h10.849V84.651z M120.623,76.934h-7.055v-0.711h7.055V76.934z M119.83,82.847h-5.476v-4.149h5.476
				V82.847z M119.071,82.102v-2.687h-3.958v2.687H119.071z"/>
			<path fill="#FFFFFF" d="M128.819,85.027h-0.731V83.92h-1.948v1.415h-0.725v-11.02h3.404V85.027z M128.088,78.725v-3.678h-1.948
				v3.678H128.088z M128.088,83.195v-3.767h-1.948v3.767H128.088z M136.851,75.717h-3.261v2.03h2.885v0.704h-6.556v-0.704h2.939
				v-2.03h-3.425v-0.738h3.425v-1.531h0.731v1.531h3.261V75.717z M137.173,80.885h-1.552v3.623c0,0.47-0.127,0.78-0.383,0.934
				c-0.255,0.152-0.75,0.229-1.483,0.229c-0.219,0-0.488-0.005-0.807-0.014l-0.294-0.752c0.451,0.032,0.848,0.048,1.189,0.048
				c0.46,0,0.752-0.035,0.875-0.106c0.123-0.07,0.185-0.192,0.185-0.365v-3.596h-5.469v-0.718h5.469v-1.299h0.718v1.299h1.552
				V80.885z M132.962,83.715l-0.629,0.376c-0.492-0.757-1.096-1.47-1.812-2.14l0.615-0.424
				C131.734,82.097,132.342,82.826,132.962,83.715z"/>
			<path fill="#FFFFFF" d="M151.118,82.785c-0.018,0.52-0.074,0.985-0.167,1.398c-0.093,0.412-0.228,0.711-0.403,0.895
				c-0.175,0.186-0.354,0.303-0.537,0.353s-0.931,0.09-2.246,0.12c-1.315,0.029-2.482,0.044-3.503,0.044
				c-0.966,0-1.652-0.013-2.058-0.038c-0.406-0.024-0.711-0.162-0.916-0.413s-0.308-0.588-0.308-1.012v-5.729l-2.003,0.52v-0.786
				l2.003-0.513v-2.939h0.759v2.728l3.165-0.813v-3.151h0.752v2.974l4.484-1.148c-0.351,2.734-0.791,4.936-1.319,6.604l-0.711-0.15
				c0.515-1.695,0.882-3.512,1.101-5.448l-3.555,0.909v5.77h-0.752v-5.585l-3.165,0.827v6.057c0,0.073,0.033,0.186,0.099,0.339
				c0.066,0.152,0.212,0.234,0.438,0.246c0.226,0.011,1.161,0.017,2.806,0.017c2.953,0,4.559-0.053,4.816-0.157
				s0.427-0.854,0.509-2.249L151.118,82.785z"/>
			<path fill="#FFFFFF" d="M164.838,80.338c0,0.902-0.049,1.782-0.147,2.639s-0.195,1.41-0.291,1.661s-0.233,0.462-0.414,0.632
				c-0.18,0.172-0.425,0.298-0.735,0.38s-0.802,0.123-1.477,0.123l-0.28-0.8c0.209,0.019,0.643,0.027,1.299,0.027
				c0.228,0,0.424-0.051,0.588-0.154c0.164-0.102,0.28-0.246,0.349-0.43c0.068-0.186,0.144-0.573,0.226-1.166
				s0.134-1.326,0.157-2.201h-8.6c-0.656,0.784-1.388,1.509-2.194,2.174l-0.424-0.684c2.169-1.723,3.593-3.828,4.272-6.316h-3.726
				v-0.731h3.89c0.209-0.925,0.346-1.625,0.41-2.099l0.711,0.157c-0.068,0.515-0.189,1.162-0.362,1.941h5.154
				c-0.137,0.788-0.301,1.602-0.492,2.44h1.388c-0.086,0.752-0.228,1.554-0.424,2.406H164.838z M156.341,74.862l-0.643,0.396
				c-0.314-0.474-0.707-0.955-1.176-1.442l0.629-0.396C155.607,73.88,156.003,74.361,156.341,74.862z M156.703,82.143
				c-0.392,1.304-0.891,2.429-1.497,3.377l-0.67-0.362c0.579-0.853,1.083-1.916,1.511-3.192L156.703,82.143z M163.272,78.643h-6.234
				c-0.237,0.501-0.567,1.066-0.991,1.695h6.918C163.092,79.709,163.195,79.144,163.272,78.643z M162.377,76.223h-4.457
				c-0.141,0.533-0.333,1.103-0.574,1.709h4.648C162.117,77.444,162.244,76.874,162.377,76.223z M158.733,85.321l-0.772,0.144
				c0.037-0.93-0.084-2.046-0.362-3.35l0.69-0.15C158.508,82.949,158.656,84.068,158.733,85.321z M160.962,84.583l-0.718,0.26
				c-0.16-0.962-0.415-1.88-0.766-2.755l0.67-0.226C160.453,82.66,160.725,83.566,160.962,84.583z M162.965,83.811l-0.663,0.308
				c-0.196-0.651-0.503-1.365-0.923-2.14l0.629-0.308C162.363,82.286,162.682,82.999,162.965,83.811z"/>
			<path fill="#FFFFFF" d="M169.151,81.192c-0.469,1.649-1.035,3.146-1.695,4.491l-0.629-0.39c0.661-1.326,1.226-2.801,1.695-4.423
				L169.151,81.192z M169.404,78.725l-0.492,0.547c-0.592-0.643-1.233-1.235-1.921-1.777l0.465-0.561
				C168.281,77.622,168.93,78.219,169.404,78.725z M169.5,75.184l-0.533,0.506c-0.725-0.788-1.326-1.362-1.805-1.723l0.492-0.506
				C168.279,73.931,168.894,74.505,169.5,75.184z M175.632,79.627l-0.376,0.615c-0.756-0.528-1.686-0.996-2.789-1.401
				c-0.328,0.351-0.711,0.695-1.148,1.032h3.001v0.677h-1.21v1.032h2.174v0.663h-2.174v2.304c0.551-0.082,1.365-0.234,2.44-0.458
				l0.027,0.643c-2.055,0.424-3.969,0.74-5.742,0.95l-0.15-0.615c1.212-0.155,2.122-0.28,2.728-0.376v-2.447h-2.27v-0.663h2.27
				V80.55h-1.347v-0.451l-1.244,0.8l-0.458-0.547c1.376-0.788,2.406-1.643,3.09-2.563l0.704,0.253
				c-0.114,0.142-0.185,0.226-0.212,0.253C173.824,78.649,174.72,79.094,175.632,79.627z M172.535,77.036l-0.602,0.253
				c-0.009-0.05-0.037-0.13-0.082-0.239c-0.483,0.301-1.057,0.617-1.723,0.95l-0.308-0.602c0.114-0.142,0.171-0.271,0.171-0.39
				v-2.666c0.729-0.273,1.358-0.552,1.887-0.834l0.438,0.472c-0.551,0.328-1.103,0.59-1.654,0.786v2.256
				c0.401-0.214,0.718-0.396,0.95-0.547c-0.05-0.173-0.144-0.388-0.28-0.643l0.547-0.294
				C172.107,75.899,172.325,76.398,172.535,77.036z M171.783,84.022l-0.547,0.349c-0.255-0.501-0.513-0.921-0.772-1.258l0.506-0.383
				C171.321,83.209,171.592,83.64,171.783,84.022z M175.338,73.803c0.027,2.092-0.045,3.279-0.219,3.562s-0.538,0.424-1.094,0.424
				l-0.198-0.684c0.1,0.009,0.182,0.014,0.246,0.014c0.164,0,0.287-0.027,0.369-0.082s0.13-0.13,0.144-0.226s0.037-0.41,0.068-0.943
				s0.041-1.012,0.027-1.436h-0.731c-0.073,1.194-0.31,2.281-0.711,3.261l-0.602-0.28c0.392-1.003,0.606-1.996,0.643-2.98h-0.67
				v-0.629H175.338z M174.989,82.929c-0.246,0.492-0.481,0.87-0.704,1.135l-0.561-0.28c0.242-0.323,0.467-0.697,0.677-1.121
				L174.989,82.929z M176.889,83.154h-0.711v-8.736h0.711V83.154z M178.769,84.747c0,0.643-0.369,0.964-1.107,0.964
				c-0.219,0-0.57-0.009-1.053-0.027l-0.232-0.711c0.214,0.014,0.44,0.021,0.677,0.021c0.456,0,0.743-0.022,0.861-0.068
				s0.178-0.176,0.178-0.39v-11.04h0.677V84.747z"/>
			<path fill="#FFFFFF" d="M192.92,83.503c-0.105,0.884-0.227,1.427-0.366,1.627s-0.304,0.335-0.492,0.403s-0.833,0.103-1.931,0.103
				c-0.789,0-1.288-0.021-1.497-0.065c-0.209-0.043-0.39-0.151-0.54-0.324s-0.226-0.398-0.226-0.677v-0.998h-1.723
				c-0.155,0.46-0.375,0.841-0.66,1.142s-0.814,0.538-1.589,0.711s-1.664,0.269-2.666,0.287l-0.253-0.629
				c1.313-0.019,2.341-0.136,3.086-0.352c0.745-0.217,1.202-0.604,1.371-1.159h-2.119V79.23h7.478v4.341h-2.228v1.025
				c0,0.15,0.084,0.254,0.253,0.312c0.168,0.057,0.667,0.085,1.497,0.085c0.77,0,1.232-0.021,1.384-0.062s0.275-0.171,0.369-0.39
				s0.158-0.636,0.195-1.251L192.92,83.503z M186.931,74.377h-2.112v0.779h1.634v1.907h-1.634v0.882h2.01v0.574h-5.202v-4.717h5.305
				V74.377z M184.17,75.156v-0.779h-1.832v0.779H184.17z M185.81,76.503v-0.8h-3.473v0.8H185.81z M184.17,77.945v-0.882h-1.832
				v0.882H184.17z M190.083,80.495v-0.69h-6.077v0.69H190.083z M190.083,81.739v-0.69h-6.077v0.69H190.083z M190.096,82.997V82.3
				h-6.091v0.697H190.096z M192.811,74.808h-4.492c-0.374,0.547-0.702,0.962-0.984,1.244l-0.588-0.349
				c0.67-0.656,1.208-1.417,1.613-2.283l0.588,0.226c-0.068,0.155-0.167,0.351-0.294,0.588h4.157V74.808z M192.502,78.547h-5.085
				v-2.003h5.085V78.547z M188.948,78.027v-0.95h-0.909v0.95H188.948z M192.209,75.956h-3.767v-0.547h3.767V75.956z M190.445,78.027
				v-0.95h-0.923v0.95H190.445z M191.873,78.027v-0.95h-0.854v0.95H191.873z"/>
			<path fill="#FFFFFF" d="M207.186,85.157l-0.547,0.554c-2.912-2.051-4.782-4.869-5.611-8.456c-0.593,3.272-2.45,6.082-5.572,8.429
				l-0.506-0.602c1.063-0.725,2.033-1.632,2.912-2.721c0.88-1.089,1.55-2.289,2.01-3.6c0.461-1.31,0.707-3.081,0.738-5.314h0.779
				c-0.027,2.584,0.488,4.873,1.545,6.867C203.991,82.308,205.408,83.922,207.186,85.157z"/>
			<path fill="#FFFFFF" d="M220.994,85.39h-11.416V73.844h11.383v0.67h-10.664v10.192h10.697V85.39z M212.785,79.039l-0.459,0.54
				c-0.414-0.438-0.943-0.856-1.586-1.258l0.479-0.533C211.94,78.271,212.461,78.688,212.785,79.039z M213.475,81.151
				c-0.705,1.249-1.379,2.251-2.016,3.008l-0.52-0.492c0.77-0.935,1.441-1.955,2.016-3.063L213.475,81.151z M213.53,76.756
				l-0.506,0.499c-0.633-0.766-1.193-1.324-1.682-1.675l0.561-0.465C212.414,75.517,212.955,76.063,213.53,76.756z M220.639,83.571
				h-6.145v-4.717c-0.301,0.479-0.623,0.897-0.965,1.258l-0.533-0.499c0.957-1.062,1.77-2.593,2.434-4.594l0.664,0.178
				c-0.109,0.415-0.26,0.854-0.451,1.319h1.947c-0.117-0.374-0.281-0.779-0.492-1.217l0.691-0.253c0.24,0.52,0.426,1.01,0.553,1.47
				h2.105V77.2h-2.324v1.415h2.113v0.67h-2.113v1.456h2.113v0.677h-2.113v1.483h2.516V83.571z M217.379,78.615V77.2h-2.018
				c-0.018,0.082-0.063,0.176-0.137,0.28v1.135H217.379z M217.379,80.741v-1.456h-2.154v1.456H217.379z M217.379,82.901v-1.483
				h-2.154v1.483H217.379z"/>
			<path fill="#FFFFFF" d="M227.701,83.558c-1.391,0.802-2.828,1.403-4.314,1.805l-0.506-0.629c1.66-0.433,3.07-0.998,4.232-1.695
				L227.701,83.558z M235.076,82.423h-5.715v3.261h-0.697v-3.261h-5.729v-0.684h5.729v-0.615h0.697v0.615h5.715V82.423z
				 M234.639,80.577h-9.967v-3.849c-0.373,0.446-0.787,0.875-1.244,1.285l-0.438-0.574c1.168-1.075,2.125-2.434,2.871-4.074
				l0.678,0.239c-0.119,0.278-0.314,0.665-0.588,1.162h3.41c-0.104-0.374-0.252-0.747-0.443-1.121l0.643-0.294
				c0.195,0.392,0.377,0.863,0.547,1.415h4.326v0.656h-4.539v1.025h4.088v0.656h-4.088v1.053h4.088V78.8h-4.088v1.087h4.744V80.577z
				 M229.17,76.448v-1.025h-3.615c-0.047,0.109-0.102,0.189-0.164,0.239v0.786H229.17z M229.17,78.157v-1.053h-3.779v1.053H229.17z
				 M229.17,79.887V78.8h-3.779v1.087H229.17z M235.063,84.877l-0.451,0.588c-1.102-0.706-2.502-1.347-4.197-1.921l0.445-0.561
				C232.518,83.563,233.92,84.193,235.063,84.877z"/>
			<path fill="#FFFFFF" d="M239.821,73.646c-0.104,0.442-0.248,0.993-0.43,1.654l-0.281,0.964v9.495h-0.703v-7.677
				c-0.402,0.829-0.746,1.451-1.033,1.866l-0.533-0.588c1.018-1.531,1.787-3.516,2.311-5.954L239.821,73.646z M248.948,74.486
				h-4.129c-0.068,0.224-0.176,0.47-0.322,0.738h3.125v3.445h1.23v1.723h-0.738v-1.094h-7.424v1.094h-0.684V78.67h1.176v-3.445
				h2.543c0.117-0.2,0.232-0.446,0.342-0.738h-3.74v-0.643h8.621V74.486z M249.09,85.294l-0.361,0.561
				c-1.582-0.287-2.895-0.634-3.938-1.039c-1.121,0.52-2.596,0.843-4.424,0.971l-0.348-0.663c1.662-0.06,2.986-0.273,3.971-0.643
				c-0.623-0.306-1.234-0.67-1.832-1.094c-0.664,0.364-1.23,0.622-1.695,0.772l-0.402-0.574c0.725-0.241,1.246-0.456,1.564-0.643
				c-0.182-0.178-0.313-0.308-0.389-0.39l0.479-0.41c0.178,0.2,0.348,0.369,0.512,0.506c0.287-0.159,0.656-0.467,1.107-0.923
				c-0.551-0.068-0.826-0.357-0.826-0.868v-1.053h0.73v1.066c0,0.123,0.049,0.206,0.148,0.25c0.098,0.043,0.475,0.064,1.131,0.064
				c0.738,0,1.17-0.055,1.299-0.164c0.127-0.109,0.191-0.355,0.191-0.738l0.629,0.294c-0.068,0.615-0.262,0.976-0.578,1.08
				s-0.953,0.15-1.91,0.137c-0.266,0.31-0.434,0.497-0.506,0.561h3.711v0.574c-0.41,0.52-0.988,1.027-1.736,1.524
				C246.666,84.809,247.824,85.089,249.09,85.294z M242.131,80.14c-0.428,0.856-0.865,1.506-1.313,1.948l-0.561-0.417
				c0.516-0.492,0.949-1.092,1.299-1.798L242.131,80.14z M246.903,76.373v-0.588h-5.023v0.588H246.903z M246.903,77.521v-0.615
				h-5.023v0.615H246.903z M246.903,78.67v-0.629h-5.023v0.629H246.903z M246.432,82.929h-3.568l-0.104,0.109
				c0.625,0.47,1.307,0.839,2.045,1.107C245.315,83.891,245.858,83.484,246.432,82.929z M245.352,80.242l-0.35,0.513
				c-0.391-0.273-0.797-0.501-1.217-0.684l0.363-0.506C244.563,79.729,244.963,79.955,245.352,80.242z M248.701,81.726l-0.588,0.349
				c-0.328-0.692-0.76-1.355-1.293-1.989l0.533-0.362C247.965,80.442,248.414,81.11,248.701,81.726z"/>
			<path fill="#FFFFFF" d="M256.815,76.359h-1.578v1.333h-0.732v-1.333h-1.859c-0.227,0.943-0.629,1.641-1.203,2.092l-0.506-0.506
				c0.734-0.593,1.102-1.602,1.102-3.028c0-0.224-0.008-0.483-0.021-0.779c1.646-0.101,3-0.296,4.061-0.588l0.391,0.615
				c-1.107,0.287-2.346,0.483-3.713,0.588c0,0.101-0.014,0.417-0.041,0.95h4.102V76.359z M261.408,83.558h-5.961l0.35,0.506
				c-1.271,0.774-2.771,1.314-4.498,1.62l-0.363-0.615c1.828-0.369,3.262-0.873,4.301-1.511h-2.482v-5.387h8.654V83.558z
				 M260.698,79.723v-0.882H253.5v0.882H260.698z M260.698,81.288v-0.923H253.5v0.923H260.698z M260.698,82.915v-0.998H253.5v0.998
				H260.698z M263.049,76.359h-2.16v1.347h-0.697v-1.347h-2.098c-0.225,0.675-0.527,1.181-0.91,1.518l-0.533-0.479
				c0.625-0.524,0.938-1.415,0.938-2.673c0-0.169-0.006-0.355-0.014-0.561c1.416-0.041,2.91-0.251,4.477-0.629l0.383,0.615
				c-1.531,0.333-2.918,0.542-4.162,0.629c0,0.401-0.014,0.709-0.041,0.923h4.818V76.359z M263.145,85.137l-0.375,0.608
				c-1.25-0.47-2.691-0.856-4.328-1.162l0.404-0.649C260.686,84.312,262.119,84.713,263.145,85.137z"/>
			<path fill="#FFFFFF" d="M276.406,84.48c0,0.323-0.09,0.579-0.273,0.766c-0.182,0.187-0.416,0.292-0.699,0.314
				c-0.285,0.022-0.658,0.034-1.119,0.034c-0.322,0-0.631-0.007-0.922-0.021l-0.309-0.772c0.73,0.068,1.416,0.103,2.059,0.103
				c0.127,0,0.244-0.05,0.348-0.15c0.105-0.101,0.158-0.228,0.158-0.383V76.77h-4.02c0.223,1.974,1.422,3.91,3.596,5.811
				l-0.527,0.513c-1.949-1.764-3.137-3.488-3.561-5.175c-0.684,1.823-1.887,3.529-3.609,5.12l-0.52-0.533
				c1.736-1.427,2.986-3.338,3.752-5.735h-4.354v8.941h-0.752v-9.7h5.16c-0.045-0.433-0.086-1.039-0.123-1.818h-1.318v-0.731h2.043
				c-0.014,0.219-0.02,0.446-0.02,0.684c0,0.547,0.041,1.169,0.123,1.866h4.887V84.48z"/>
			<path fill="#FFFFFF" d="M291.145,81.404l-0.361,0.643c-0.451-0.155-0.99-0.378-1.613-0.67V85.8h-0.725v-0.854h-6.877v0.766
				h-0.711v-4.423c-0.434,0.224-0.957,0.449-1.572,0.677l-0.418-0.602c2.617-0.979,4.713-2.256,6.289-3.828l0.615,0.383l-0.32,0.362
				C286.791,79.475,288.69,80.516,291.145,81.404z M284.186,76.544c-0.961,0.925-2.395,1.896-4.299,2.912l-0.432-0.588
				c1.777-0.935,3.172-1.878,4.184-2.83L284.186,76.544z M290.571,77.303h-0.738v-1.948h-9.549V77.2h-0.732v-2.529h5.367
				c-0.129-0.41-0.283-0.784-0.465-1.121l0.703-0.171c0.242,0.451,0.426,0.882,0.555,1.292h4.859V77.303z M288.596,81.138
				c-1.445-0.716-2.672-1.509-3.678-2.379c-1.004,0.87-2.217,1.663-3.645,2.379H288.596z M288.446,84.255v-2.406h-6.877v2.406
				H288.446z M290.666,78.896l-0.443,0.574c-1.313-1.017-2.742-1.939-4.287-2.769l0.438-0.574
				C287.887,76.938,289.319,77.861,290.666,78.896z"/>
			<path fill="#FFFFFF" d="M299.047,78.219c0.393,0,0.727,0.135,1.006,0.403c0.277,0.269,0.416,0.606,0.416,1.012
				s-0.127,0.74-0.383,1.005c-0.254,0.265-0.582,0.396-0.984,0.396c-0.363,0-0.686-0.117-0.967-0.352
				c-0.279-0.235-0.42-0.594-0.42-1.077c0-0.451,0.143-0.795,0.428-1.032C298.426,78.337,298.729,78.219,299.047,78.219z
				 M299.895,79.641c0-0.241-0.082-0.437-0.246-0.584c-0.164-0.148-0.361-0.223-0.594-0.223c-0.229,0-0.418,0.081-0.57,0.242
				c-0.154,0.162-0.23,0.351-0.23,0.564c0,0.2,0.074,0.39,0.219,0.567c0.146,0.178,0.344,0.267,0.596,0.267
				c0.236,0,0.434-0.077,0.592-0.232C299.817,80.087,299.895,79.887,299.895,79.641z"/>
		</g>
	</g>
</g>
</svg>
