<?xml version="1.0" encoding="utf-8"?>
<!-- Generator: Adobe Illustrator 16.0.0, SVG Export Plug-In . SVG Version: 6.00 Build 0)  -->
<!DOCTYPE svg PUBLIC "-//W3C//DTD SVG 1.1//EN" "http://www.w3.org/Graphics/SVG/1.1/DTD/svg11.dtd">
<svg version="1.1" xmlns="http://www.w3.org/2000/svg" xmlns:xlink="http://www.w3.org/1999/xlink" x="0px" y="0px" width="28px"
	 height="28px" viewBox="0 0 28 28" enable-background="new 0 0 28 28" xml:space="preserve">
<g id="Layer_1" display="none" opacity="0.65">
	<circle display="inline" fill="#231F20" cx="14" cy="14" r="14"/>
</g>
<g id="Layer_1_copy" display="none" opacity="0.65">
	<circle display="inline" fill="#00AEEF" cx="14" cy="14" r="14"/>
</g>
<g id="PLAY_x28_三角_x29_" display="none">
	
		<polygon display="inline" fill="#FFFFFF" stroke="#FFFFFF" stroke-linecap="round" stroke-linejoin="round" stroke-miterlimit="10" points="
		20.881,14 12.563,19.015 12.563,14 12.563,8.985 	"/>
</g>
<g id="speaker_x28_喇叭_x29_" display="none">
	<g display="inline">
		
			<rect x="9.676" y="11.511" fill="#FFFFFF" stroke="#FFFFFF" stroke-linecap="round" stroke-linejoin="round" stroke-miterlimit="10" width="3.07" height="4.976"/>
		<polygon fill="#FFFFFF" stroke="#FFFFFF" stroke-linecap="round" stroke-linejoin="round" stroke-miterlimit="10" points="
			9.676,14 18.323,19.215 18.323,14 18.323,8.786 		"/>
	</g>
</g>
<g id="UP" display="none">
	
		<polygon display="inline" fill="#FFFFFF" stroke="#FFFFFF" stroke-linecap="round" stroke-linejoin="round" stroke-miterlimit="10" points="
		14,6.855 22.613,21.144 14,21.144 5.386,21.144 	"/>
</g>
<g id="UP_copy" display="none">
	
		<polygon display="inline" fill="#FFFFFF" stroke="#FFFFFF" stroke-linecap="round" stroke-linejoin="round" stroke-miterlimit="10" points="
		14,21.142 22.613,6.857 14,6.857 5.386,6.857 	"/>
</g>
<g id="minus" display="none">
	
		<rect x="4.88" y="12" display="inline" fill="#FFFFFF" stroke="#FFFFFF" stroke-linecap="round" stroke-linejoin="round" stroke-miterlimit="10" width="18.239" height="4.375"/>
</g>
<g id="Layer_8" display="none">
	<g display="inline">
		<g>
			<polygon fill="none" stroke="#FFFFFF" stroke-linecap="round" stroke-linejoin="round" stroke-miterlimit="10" points="
				20.145,11.069 7.854,11.069 7.854,20.477 12.165,20.477 12.165,20.477 15.834,20.477 15.834,20.477 20.145,20.477 			"/>
			
				<rect x="12.165" y="20.477" display="none" fill="none" stroke="#FFFFFF" stroke-linecap="round" stroke-linejoin="round" stroke-miterlimit="10" width="3.669" height="0.763"/>
			<path fill="none" stroke="#FFFFFF" stroke-linecap="round" stroke-linejoin="round" d="M10.483,5.017
				c1.217-0.645,2.027-0.01,2.606,1.166c0.415,0.843,1.265,2.265,0.424,3.067c-1.25,1.19-3.862-0.648-4.446-1.92
				c-0.412-0.898,0.685-1.914,1.376-2.292C10.457,5.031,10.47,5.023,10.483,5.017z"/>
			<path fill="none" stroke="#FFFFFF" stroke-linecap="round" stroke-linejoin="round" d="M17.54,5.017
				c-1.217-0.645-2.026-0.01-2.605,1.166c-0.416,0.843-1.266,2.265-0.424,3.067c1.249,1.19,3.862-0.648,4.445-1.92
				c0.412-0.898-0.686-1.914-1.377-2.292C17.566,5.031,17.553,5.023,17.54,5.017z"/>
			<polygon fill="none" stroke="#FFFFFF" stroke-linecap="round" stroke-linejoin="round" points="21.118,12.641 6.882,12.641 
				6.882,9.398 11.875,9.398 11.875,9.398 16.124,9.398 16.124,9.398 21.118,9.398 			"/>
			
				<rect x="12.165" y="9.398" fill="none" stroke="#FFFFFF" stroke-linecap="round" stroke-linejoin="round" width="3.669" height="11.078"/>
		</g>
	</g>
</g>
<g id="禮物2" display="none">
	<g display="inline">
		
			<rect x="12.165" y="21.477" display="none" fill="none" stroke="#FFFFFF" stroke-linecap="round" stroke-linejoin="round" stroke-miterlimit="10" width="3.669" height="0.763"/>
		<path fill="none" stroke="#FFFFFF" stroke-linecap="round" stroke-linejoin="round" d="M10.483,6.018
			c1.217-0.645,2.027-0.01,2.606,1.166c0.415,0.843,1.265,2.265,0.424,3.067c-1.25,1.19-3.862-0.648-4.446-1.92
			c-0.412-0.898,0.685-1.914,1.376-2.292C10.457,6.031,10.47,6.024,10.483,6.018z"/>
		<path fill="none" stroke="#FFFFFF" stroke-linecap="round" stroke-linejoin="round" d="M17.54,6.018
			c-1.217-0.645-2.026-0.01-2.605,1.166c-0.416,0.843-1.266,2.265-0.424,3.067c1.249,1.19,3.862-0.648,4.445-1.92
			c0.412-0.898-0.686-1.914-1.377-2.292C17.566,6.031,17.553,6.024,17.54,6.018z"/>
		<polygon fill="none" stroke="#FFFFFF" stroke-linecap="round" stroke-linejoin="round" points="21.118,10.399 16.124,10.399 
			11.875,10.399 6.882,10.399 6.882,13.642 7.854,13.642 7.854,21.477 12.165,21.477 15.834,21.477 20.145,21.477 20.145,13.642 
			21.118,13.642 		"/>
		
			<rect x="12.165" y="10.399" fill="none" stroke="#FFFFFF" stroke-linecap="round" stroke-linejoin="round" width="3.669" height="11.078"/>
		
			<line fill="none" stroke="#FFFFFF" stroke-linecap="round" stroke-linejoin="round" x1="6.882" y1="13.642" x2="21.118" y2="13.642"/>
	</g>
</g>
<g id="禮物3">
	<g>
		<path fill="#FFFFFF" d="M13.513,9c0.841-0.802-0.009-2.225-0.424-3.067c-0.579-1.175-1.39-1.81-2.606-1.166
			c-0.013,0.006-0.026,0.014-0.039,0.021C9.752,5.167,8.655,6.183,9.067,7.081C9.651,8.353,12.264,10.191,13.513,9z"/>
		<path fill="#FFFFFF" d="M19.174,7.081c0.412-0.898-0.686-1.914-1.377-2.292c-0.012-0.007-0.025-0.014-0.039-0.021
			c-1.217-0.645-2.025-0.01-2.605,1.166C14.737,6.776,13.887,8.198,14.729,9C15.979,10.191,18.592,8.353,19.174,7.081z"/>
	</g>
	<g>
		<rect x="12.159" y="14.142" fill="none" width="3.681" height="0.525"/>
		<path fill="#FFFFFF" d="M6.882,9.899c-0.276,0-0.5,0.224-0.5,0.5v3.243c0,0.276,0.224,0.5,0.5,0.5h0.472h4.055V9.899H6.882z"/>
		<rect x="12.159" y="9.899" fill="#FFFFFF" width="3.681" height="4.243"/>
		<path fill="#FFFFFF" d="M21.118,9.899H16.59v4.243h4.055h0.474c0.276,0,0.5-0.224,0.5-0.5v-3.243
			C21.618,10.123,21.395,9.899,21.118,9.899z"/>
		<path fill="#FFFFFF" d="M20.145,21.977c0.276,0,0.5-0.224,0.5-0.5v-6.81H16.59v7.31H20.145z"/>
		<path fill="#FFFFFF" d="M7.354,14.667v6.81c0,0.276,0.224,0.5,0.5,0.5h3.555v-7.31H7.354z"/>
		<rect x="12.159" y="14.667" fill="#FFFFFF" width="3.681" height="7.31"/>
	</g>
	<g display="none">
		<path display="inline" fill="#FFFFFF" d="M8.116,7.5c-0.47-0.285-0.431-0.67,0.088-0.854l3.571-1.27
			c0.519-0.184,1.006,0.11,1.084,0.655l0.543,3.777c0.078,0.544-0.243,0.756-0.712,0.471L8.116,7.5z"/>
	</g>
</g>
</svg>
