<?xml version="1.0" encoding="utf-8"?>
<!-- Generator: Adobe Illustrator 16.0.0, SVG Export Plug-In . SVG Version: 6.00 Build 0)  -->
<!DOCTYPE svg PUBLIC "-//W3C//DTD SVG 1.1//EN" "http://www.w3.org/Graphics/SVG/1.1/DTD/svg11.dtd">
<svg version="1.1" xmlns="http://www.w3.org/2000/svg" xmlns:xlink="http://www.w3.org/1999/xlink" x="0px" y="0px" width="220px"
	 height="44px" viewBox="0 0 220 44" enable-background="new 0 0 220 44" xml:space="preserve">
<g id="Layer_5" display="none" opacity="0.5">
	
		<image display="inline" overflow="visible" width="795" height="1018" xlink:href="1530844914403.jpg"  transform="matrix(1.2426 0 0 1.2426 -83.9658 -308.665)">
	</image>
</g>
<g id="Layer_3" display="none">
	
		<image display="inline" overflow="visible" width="1735" height="998" xlink:href="BF195AC2.jpg"  transform="matrix(1 0 0 1 -156.25 -117.75)">
	</image>
</g>
<g id="Layer_4" display="none" opacity="0.8">
	
		<image display="inline" overflow="visible" width="1544" height="985" xlink:href="BF195AC5.jpg"  transform="matrix(0.6252 0 0 0.6252 -129 -201.7529)">
	</image>
</g>
<g id="原LOGO" display="none" opacity="0.5">
	<image display="inline" overflow="visible" width="200" height="40" xlink:href="logo.png"  transform="matrix(1 0 0 1 10 2)">
	</image>
</g>
<g id="web">
	<g>
		<defs>
			<path id="SVGID_1_" d="M100.342,41.212h1.225v-9.675h-1.225V41.212z M129.547,41.212h1.228v-9.675h-1.228V41.212z
				 M174.231,31.537l-2.508,3.538l-2.535-3.538h-1.467l3.266,4.58l-3.609,5.095h1.465l2.878-4.063l2.901,4.063h1.493l-3.654-5.105
				l3.245-4.569H174.231z M160.7,39.818c-0.561-0.325-1.007-0.784-1.337-1.376c-0.327-0.596-0.494-1.232-0.494-1.922
				c0-1.067,0.36-1.973,1.086-2.725c0.724-0.748,1.59-1.125,2.597-1.125c0.998,0,1.864,0.377,2.593,1.125
				c0.724,0.752,1.087,1.657,1.087,2.725c0,0.689-0.163,1.326-0.495,1.922c-0.329,0.592-0.776,1.051-1.335,1.376
				c-0.563,0.32-1.179,0.484-1.85,0.484C161.878,40.303,161.263,40.139,160.7,39.818 M158.939,33.07
				c-0.867,0.97-1.299,2.11-1.299,3.425c0,1.326,0.458,2.487,1.375,3.479c0.915,0.991,2.094,1.488,3.538,1.488
				c1.441,0,2.617-0.497,3.531-1.488c0.917-0.992,1.375-2.153,1.375-3.479c0-1.322-0.433-2.469-1.302-3.433
				c-0.953-1.059-2.152-1.591-3.604-1.591C161.098,31.472,159.895,32.006,158.939,33.07 M105.297,33.039l0.044-1.502h-1.225v9.675
				h1.225v-3.55c0-1.273,0.058-2.149,0.175-2.63c0.372-1.471,1.67-2.596,3.152-2.596c1.297,0,2.108,0.646,2.394,1.929
				c0.091,0.374,0.135,1.118,0.135,2.231v4.615h1.227v-4.979c0-1.315-0.131-2.285-0.396-2.906c-0.525-1.247-1.69-2.038-3.114-2.038
				C107.512,31.289,106.276,31.71,105.297,33.039 M134.549,33.039l0.044-1.502h-1.224v9.675h1.224v-3.55
				c0-1.273,0.059-2.149,0.177-2.63c0.372-1.471,1.669-2.596,3.152-2.596c1.296,0,2.109,0.646,2.394,1.929
				c0.089,0.374,0.137,1.118,0.137,2.231v4.615h1.225v-4.979c0-1.315-0.131-2.285-0.394-2.906c-0.525-1.247-1.694-2.038-3.118-2.038
				C136.767,31.289,135.528,31.71,134.549,33.039 M89.804,36.172c0-2.109,1.68-3.819,3.754-3.819c2.073,0,3.752,1.71,3.752,3.819
				c0,2.111-1.68,3.82-3.752,3.82C91.484,39.992,89.804,38.283,89.804,36.172 M88.553,36.172v6.467h1.348v-2.997
				c0.913,0.997,2.211,1.627,3.657,1.627c2.762,0,5.002-2.282,5.002-5.097s-2.24-5.094-5.002-5.094
				C90.793,31.078,88.553,33.357,88.553,36.172 M118.866,36.172c0-2.109,1.678-3.819,3.751-3.819c2.074,0,3.753,1.71,3.753,3.819
				c0,2.111-1.679,3.82-3.753,3.82C120.544,39.992,118.866,38.283,118.866,36.172 M117.615,36.172v6.467h1.345v-2.997
				c0.915,0.997,2.212,1.627,3.657,1.627c2.764,0,5.002-2.282,5.002-5.097s-2.238-5.094-5.002-5.094
				C119.857,31.078,117.615,33.357,117.615,36.172 M147.731,36.369c0-2.11,1.679-3.822,3.751-3.822c2.076,0,3.755,1.712,3.755,3.822
				c0,2.107-1.679,3.823-3.755,3.823C149.41,40.192,147.731,38.477,147.731,36.369 M146.481,29.902v6.467
				c0,2.813,2.238,5.094,5.001,5.094c2.765,0,5.004-2.28,5.004-5.094c0-2.816-2.239-5.093-5.004-5.093
				c-1.443,0-2.741,0.626-3.655,1.622v-2.996H146.481z M100.245,27.856c-0.198,0.203-0.297,0.448-0.297,0.73
				c0,0.278,0.1,0.517,0.297,0.719c0.197,0.202,0.434,0.299,0.707,0.299c0.281,0,0.516-0.097,0.714-0.299
				c0.198-0.202,0.297-0.44,0.297-0.719c0-0.282-0.099-0.527-0.297-0.73c-0.199-0.201-0.434-0.303-0.714-0.303
				C100.679,27.554,100.441,27.655,100.245,27.856 M129.449,27.856c-0.196,0.203-0.294,0.448-0.294,0.73
				c0,0.278,0.098,0.517,0.294,0.719c0.198,0.202,0.435,0.299,0.707,0.299c0.28,0,0.518-0.097,0.716-0.299
				c0.197-0.202,0.297-0.44,0.297-0.719c0-0.282-0.1-0.527-0.297-0.73c-0.198-0.201-0.436-0.303-0.716-0.303
				C129.884,27.554,129.647,27.655,129.449,27.856"/>
		</defs>
		<clipPath id="SVGID_2_">
			<use xlink:href="#SVGID_1_"  overflow="visible"/>
		</clipPath>
		
			<linearGradient id="SVGID_3_" gradientUnits="userSpaceOnUse" x1="-220.0771" y1="210.9795" x2="-219.7295" y2="210.9795" gradientTransform="matrix(0 -43.3853 -43.3853 0 9285.7393 -9505.4912)">
			<stop  offset="0" style="stop-color:#00AEBB"/>
			<stop  offset="1" style="stop-color:#2EB6AA"/>
		</linearGradient>
		<rect x="88.553" y="27.554" clip-path="url(#SVGID_2_)" fill="url(#SVGID_3_)" width="87.563" height="15.085"/>
	</g>
	<path fill="#FFFFFF" d="M74.574,8.079c0,0-13.229-5.873-15.956-7.087c-1.875-0.831-1.815-0.979-3.688,0.052
		c-2.895,1.593-17.769,9.772-17.769,9.772c-0.56,0.417-0.927,1.075-0.927,1.825v20.087c0,0,0.031,1.014,1.322,1.604
		c11.742,5.477,17.211,7.974,18.754,8.676c1.767,0.803,1.86,1.008,3.66-0.066c1.685-1.006,7.704-4.612,15.049-9.036
		c0.941-0.564,1.333-1.074,1.336-2.109C76.36,28.615,76.4,10.36,76.4,10.36C76.4,8.609,74.574,8.079,74.574,8.079z"/>
	<g>
		<defs>
			<path id="SVGID_4_" d="M47.363,19.609v4.858c0,0.535,0.41,1.147,0.909,1.364l4.545,1.953c0.501,0.215,0.91-0.045,0.91-0.578
				v-4.863c0-0.536-0.409-1.149-0.91-1.364l-4.545-1.953c-0.118-0.052-0.233-0.076-0.337-0.076
				C47.602,18.951,47.363,19.199,47.363,19.609"/>
		</defs>
		<clipPath id="SVGID_5_">
			<use xlink:href="#SVGID_4_"  overflow="visible"/>
		</clipPath>
		
			<linearGradient id="SVGID_6_" gradientUnits="userSpaceOnUse" x1="-220.4897" y1="205.7021" x2="-220.1422" y2="205.7021" gradientTransform="matrix(0 -25.629 -25.629 0 5322.4609 -5623.085)">
			<stop  offset="0" style="stop-color:#00AEBB"/>
			<stop  offset="1" style="stop-color:#2EB6AA"/>
		</linearGradient>
		<rect x="47.363" y="18.951" clip-path="url(#SVGID_5_)" fill="url(#SVGID_6_)" width="6.364" height="9.049"/>
	</g>
	<g>
		<defs>
			<path id="SVGID_7_" d="M46.637,34.483l-1.658-0.505c-0.68-0.296-1.258-1.116-1.289-1.833l-0.166-19.32
				c-0.031-0.719,0.498-1.063,1.179-0.768l12.058,4.98c0.679,0.291,1.256,1.106,1.288,1.827l0.217,14.488
				c0.03,0.719-0.499,1.067-1.179,0.771l-9.447-4.367l0.175,3.957c0.024,0.547-0.275,0.875-0.719,0.875
				C46.956,34.589,46.801,34.557,46.637,34.483 M64.358,30.944l-3.448-1.596l-0.134-12.302c-0.03-0.714-0.607-1.536-1.288-1.825
				l-8.676-3.584l-0.017-1.993c-0.029-0.716,0.498-1.062,1.179-0.769l12.058,4.98c0.682,0.296,1.254,1.116,1.286,1.832l0.219,14.489
				c0.022,0.542-0.275,0.869-0.719,0.869C64.678,31.046,64.522,31.015,64.358,30.944 M71.173,27.764l-3.454-1.594l-0.132-12.304
				c-0.027-0.721-0.604-1.536-1.285-1.83l-8.673-3.582L57.61,6.467c-0.03-0.719,0.499-1.066,1.178-0.772l12.057,4.98
				c0.684,0.294,1.259,1.11,1.29,1.83l0.219,14.485c0.023,0.547-0.277,0.879-0.72,0.879C71.493,27.869,71.338,27.835,71.173,27.764
				 M54.931,1.044c-2.896,1.593-17.769,9.772-17.769,9.772c-0.56,0.416-0.927,1.075-0.927,1.825v20.085c0,0,0.031,1.013,1.322,1.606
				c11.742,5.477,17.211,7.972,18.754,8.676c1.767,0.803,1.86,1.008,3.66-0.066c1.685-1.006,7.704-4.612,15.049-9.036
				c0.941-0.566,1.333-1.074,1.336-2.109C76.36,28.615,76.4,10.36,76.4,10.36c0-1.751-1.826-2.282-1.826-2.282
				S61.345,2.206,58.618,0.992c-0.962-0.426-1.416-0.672-1.88-0.672C56.295,0.319,55.842,0.542,54.931,1.044"/>
		</defs>
		<clipPath id="SVGID_8_">
			<use xlink:href="#SVGID_7_"  overflow="visible"/>
		</clipPath>
		
			<linearGradient id="SVGID_9_" gradientUnits="userSpaceOnUse" x1="-220.6587" y1="209.2012" x2="-220.3113" y2="209.2012" gradientTransform="matrix(0 -124.7244 -124.7244 0 26148.7617 -27477.8809)">
			<stop  offset="0" style="stop-color:#00AEBB"/>
			<stop  offset="1" style="stop-color:#2EB6AA"/>
		</linearGradient>
		<rect x="36.234" y="0.319" clip-path="url(#SVGID_8_)" fill="url(#SVGID_9_)" width="40.166" height="43.697"/>
	</g>
	<g>
		<g>
			<linearGradient id="SVGID_10_" gradientUnits="userSpaceOnUse" x1="151.4941" y1="25.7383" x2="151.4941" y2="6.2662">
				<stop  offset="0" style="stop-color:#00ADBA"/>
				<stop  offset="1" style="stop-color:#2CB5A9"/>
			</linearGradient>
			<path fill="url(#SVGID_10_)" d="M153.377,23.656h-3.767c-1.199,0-2.169-0.971-2.169-2.168v-9.107c0-1.198,0.97-2.168,2.169-2.168
				h3.767c1.197,0,2.17,0.971,2.17,2.168v9.107C155.547,22.686,154.574,23.656,153.377,23.656z M150.599,13.528
				c-0.194,0-0.352,0.158-0.352,0.351v6.111c0,0.194,0.157,0.352,0.352,0.352h2.046c0.194,0,0.351-0.157,0.351-0.352v-6.111
				c0-0.193-0.156-0.351-0.351-0.351H150.599z"/>
			<linearGradient id="SVGID_11_" gradientUnits="userSpaceOnUse" x1="164.5791" y1="25.7373" x2="164.5791" y2="6.265">
				<stop  offset="0" style="stop-color:#00ADBA"/>
				<stop  offset="1" style="stop-color:#2CB5A9"/>
			</linearGradient>
			<path fill="url(#SVGID_11_)" d="M171.995,25.774c0-1.277-0.797-2.446-2.063-3.029l-1.11,0.937h-8.304
				c-0.413,0-0.75-0.335-0.75-0.75V15.92h10.768c0.806,0,1.459-0.652,1.459-1.459V9.599c0-0.812-0.657-1.469-1.469-1.469H158.61
				c-0.799,0-1.447,0.649-1.447,1.447v13.667c0,1.41,1.146,2.554,2.555,2.549L171.995,25.774L171.995,25.774z M166.115,10.467h2.76
				c0.414,0,0.75,0.335,0.75,0.749v1.624c0,0.414-0.336,0.749-0.75,0.749h-2.76V10.467z M160.498,10.467h2.78v3.122h-3.53v-2.373
				C159.748,10.802,160.083,10.467,160.498,10.467z"/>
			<g>
				<linearGradient id="SVGID_12_" gradientUnits="userSpaceOnUse" x1="136.2354" y1="25.7393" x2="136.2354" y2="6.2656">
					<stop  offset="0" style="stop-color:#00ADBA"/>
					<stop  offset="1" style="stop-color:#2CB5A9"/>
				</linearGradient>
				<path fill="url(#SVGID_12_)" d="M139.663,8.13h-6.5c-1.194,0-2.163,0.833-2.163,1.86v0.772h3.312l0.765,12.313
					c0.035,0.314-0.203,0.588-0.514,0.606h-1.18l-0.967-0.813c-1.086,0.5-1.77,1.824-1.77,2.918l0,0h0.377h3.536h0.951
					c0.829,0,1.527-0.61,1.64-1.429c0.494-3.645,1.491-13.596,1.491-13.596h3.183V9.99C141.824,8.962,140.856,8.13,139.663,8.13z"/>
				<linearGradient id="SVGID_13_" gradientUnits="userSpaceOnUse" x1="123.4697" y1="25.7393" x2="123.4697" y2="6.2664">
					<stop  offset="0" style="stop-color:#00ADBA"/>
					<stop  offset="1" style="stop-color:#2CB5A9"/>
				</linearGradient>
				<path fill="url(#SVGID_13_)" d="M127.815,12.864h-0.423h-7.843h-0.425c-0.398,0-0.725,0.324-0.725,0.723v0.85
					c0,0.399,0.326,0.722,0.725,0.722h0.425h3.654v2.004h-3.654h-0.425c-0.398,0-0.725,0.324-0.725,0.724v0.849
					c0,0.4,0.326,0.722,0.725,0.722h0.425h3.654v4.033h-3.654h-0.425c-0.398,0-0.725,0.325-0.725,0.725v0.847
					c0,0.401,0.326,0.725,0.725,0.725h0.425h7.843h0.423c0.399,0,0.724-0.323,0.724-0.725v-0.847c0-0.399-0.324-0.725-0.724-0.725
					h-0.423H125.5v-4.033h1.893h0.423c0.399,0,0.724-0.322,0.724-0.722v-0.849c0-0.4-0.324-0.724-0.724-0.724h-0.423H125.5v-2.004
					h1.893h0.423c0.399,0,0.724-0.323,0.724-0.722v-0.85C128.539,13.188,128.215,12.864,127.815,12.864z"/>
			</g>
			<linearGradient id="SVGID_14_" gradientUnits="userSpaceOnUse" x1="123.793" y1="25.7402" x2="123.793" y2="6.2648">
				<stop  offset="0" style="stop-color:#00ADBA"/>
				<stop  offset="1" style="stop-color:#2CB5A9"/>
			</linearGradient>
			<path fill="url(#SVGID_14_)" d="M127.946,12.102l-3.171-3.172c-0.565-0.565-1.479-0.565-2.045,0l-3.093,3.091
				c-0.28,0.283-0.738,0.283-1.02,0l-0.601-0.601c-0.284-0.283-0.284-0.74,0-1.023l3.371-3.37c1.303-1.305,3.425-1.305,4.729,0
				l3.451,3.452c0.282,0.283,0.282,0.74,0,1.022l-0.599,0.602C128.688,12.383,128.229,12.383,127.946,12.102z"/>
			<g>
				<linearGradient id="SVGID_15_" gradientUnits="userSpaceOnUse" x1="106.5981" y1="25.7393" x2="106.5981" y2="6.2656">
					<stop  offset="0" style="stop-color:#00ADBA"/>
					<stop  offset="1" style="stop-color:#2CB5A9"/>
				</linearGradient>
				<path fill="url(#SVGID_15_)" d="M110.025,8.13h-6.499c-1.195,0-2.163,0.833-2.163,1.86v0.772h3.31l0.767,12.313
					c0.034,0.314-0.203,0.588-0.515,0.606h-1.181l-0.965-0.813c-1.087,0.5-1.771,1.824-1.771,2.918l0,0h0.377h3.536h0.953
					c0.827,0,1.527-0.61,1.638-1.429c0.495-3.645,1.49-13.596,1.49-13.596h3.183V9.99C112.187,8.962,111.218,8.13,110.025,8.13z"/>
				<linearGradient id="SVGID_16_" gradientUnits="userSpaceOnUse" x1="93.8335" y1="25.7393" x2="93.8335" y2="6.2664">
					<stop  offset="0" style="stop-color:#00ADBA"/>
					<stop  offset="1" style="stop-color:#2CB5A9"/>
				</linearGradient>
				<path fill="url(#SVGID_16_)" d="M98.179,12.864h-0.424h-7.843h-0.424c-0.399,0-0.724,0.324-0.724,0.723v0.85
					c0,0.399,0.324,0.722,0.724,0.722h0.424h3.656v2.004h-3.656h-0.424c-0.399,0-0.724,0.324-0.724,0.724v0.849
					c0,0.4,0.324,0.722,0.724,0.722h0.424h3.656v4.033h-3.656h-0.424c-0.399,0-0.724,0.325-0.724,0.725v0.847
					c0,0.401,0.324,0.725,0.724,0.725h0.424h7.843h0.424c0.4,0,0.723-0.323,0.723-0.725v-0.847c0-0.399-0.323-0.725-0.723-0.725
					h-0.424h-1.892v-4.033h1.892h0.424c0.4,0,0.723-0.322,0.723-0.722v-0.849c0-0.4-0.323-0.724-0.723-0.724h-0.424h-1.892v-2.004
					h1.892h0.424c0.4,0,0.723-0.323,0.723-0.722v-0.85C98.902,13.188,98.579,12.864,98.179,12.864z"/>
			</g>
			<linearGradient id="SVGID_17_" gradientUnits="userSpaceOnUse" x1="94.1567" y1="25.7402" x2="94.1567" y2="6.2648">
				<stop  offset="0" style="stop-color:#00ADBA"/>
				<stop  offset="1" style="stop-color:#2CB5A9"/>
			</linearGradient>
			<path fill="url(#SVGID_17_)" d="M98.31,12.102l-3.171-3.172c-0.565-0.565-1.48-0.565-2.044,0l-3.091,3.091
				c-0.282,0.283-0.739,0.283-1.022,0l-0.601-0.601c-0.282-0.283-0.282-0.74,0-1.023l3.371-3.37c1.304-1.305,3.426-1.305,4.731,0
				l3.452,3.452c0.282,0.283,0.282,0.74,0,1.022l-0.602,0.602C99.05,12.383,98.593,12.383,98.31,12.102z"/>
		</g>
		<path fill="#DE5985" d="M110.025,8.13h-6.499c-1.195,0-2.163,0.833-2.163,1.86v0.772h3.31l3.021,11.936
			c0.495-3.642,1.308-11.936,1.308-11.936h3.183V9.99C112.187,8.962,111.218,8.13,110.025,8.13z"/>
		<g>
			<polygon fill="#FFD317" points="105.193,19.1 109.003,10.763 104.674,10.763 			"/>
		</g>
		<path fill="#DE5985" d="M139.663,8.13h-6.5c-1.194,0-2.163,0.833-2.163,1.86v0.772h3.312l3.02,11.936
			c0.496-3.642,1.311-11.936,1.311-11.936h3.183V9.99C141.824,8.962,140.856,8.13,139.663,8.13z"/>
		<g>
			<polygon fill="#FFD317" points="134.83,19.1 138.642,10.763 134.312,10.763 			"/>
		</g>
		<g>
			<defs>
				<path id="SVGID_18_" d="M153.377,23.656h-3.767c-1.199,0-2.169-0.971-2.169-2.168v-9.107c0-1.198,0.97-2.168,2.169-2.168h3.767
					c1.197,0,2.17,0.971,2.17,2.168v9.107C155.547,22.686,154.574,23.656,153.377,23.656z M150.599,13.528
					c-0.194,0-0.352,0.158-0.352,0.351v6.111c0,0.194,0.157,0.352,0.352,0.352h2.046c0.194,0,0.351-0.157,0.351-0.352v-6.111
					c0-0.193-0.156-0.351-0.351-0.351H150.599z"/>
			</defs>
			<clipPath id="SVGID_19_">
				<use xlink:href="#SVGID_18_"  overflow="visible"/>
			</clipPath>
			<path clip-path="url(#SVGID_19_)" fill="#DE5985" d="M146.74,11.793l9.519,9.518c0,0-0.856,2.852-0.994,2.852
				c-0.136,0-8.619,0.272-8.619,0.272l-2.019-7.473L146.74,11.793z"/>
		</g>
		<g>
			<defs>
				<path id="SVGID_20_" d="M153.377,23.656h-3.767c-1.199,0-2.169-0.971-2.169-2.168v-9.107c0-1.198,0.97-2.168,2.169-2.168h3.767
					c1.197,0,2.17,0.971,2.17,2.168v9.107C155.547,22.686,154.574,23.656,153.377,23.656z M150.599,13.528
					c-0.194,0-0.352,0.158-0.352,0.351v6.111c0,0.194,0.157,0.352,0.352,0.352h2.046c0.194,0,0.351-0.157,0.351-0.352v-6.111
					c0-0.193-0.156-0.351-0.351-0.351H150.599z"/>
			</defs>
			<clipPath id="SVGID_21_">
				<use xlink:href="#SVGID_20_"  overflow="visible"/>
			</clipPath>
			<g clip-path="url(#SVGID_21_)">
				<polygon fill="#FFD317" points="152.225,16.223 146.633,20.771 146.494,8.559 				"/>
			</g>
		</g>
		<path fill="#DE5985" d="M119.889,22.669c0.181,0.181,0.417,0.27,0.654,0.27c0.238,0,0.474-0.089,0.656-0.27
			c0.359-0.362,0.359-0.947,0-1.308l-0.746-0.746c-0.36-0.361-0.948-0.362-1.308,0c-0.363,0.361-0.363,0.948,0,1.309L119.889,22.669
			z"/>
		<path fill="#DE5985" d="M126.914,21.042l-0.318,0.319c-0.361,0.361-0.361,0.946,0,1.308c0.182,0.181,0.418,0.27,0.654,0.27
			s0.475-0.089,0.655-0.27l0.315-0.316c0.362-0.363,0.362-0.949,0-1.311C127.862,20.68,127.273,20.68,126.914,21.042z"/>
		<path fill="#DE5985" d="M90.252,22.669c0.181,0.181,0.417,0.27,0.654,0.27c0.237,0,0.474-0.089,0.655-0.27
			c0.362-0.362,0.362-0.947,0-1.308l-0.745-0.746c-0.361-0.361-0.947-0.362-1.309,0c-0.362,0.361-0.362,0.948,0,1.309L90.252,22.669
			z"/>
		<path fill="#DE5985" d="M97.276,21.042l-0.317,0.319c-0.361,0.361-0.361,0.946,0,1.308c0.181,0.181,0.417,0.27,0.654,0.27
			c0.236,0,0.474-0.089,0.655-0.27l0.316-0.316c0.362-0.363,0.362-0.949,0-1.311C98.225,20.68,97.638,20.68,97.276,21.042z"/>
	</g>
</g>
<g id="Layer_6" display="none" opacity="0.5">
</g>
<g id="web_copy">
</g>
<g id="十字中心線">
</g>
</svg>
