<?xml version="1.0" encoding="utf-8"?>
<!-- Generator: Adobe Illustrator 16.0.0, SVG Export Plug-In . SVG Version: 6.00 Build 0)  -->
<!DOCTYPE svg PUBLIC "-//W3C//DTD SVG 1.1//EN" "http://www.w3.org/Graphics/SVG/1.1/DTD/svg11.dtd">
<svg version="1.1" id="Layer_1" xmlns="http://www.w3.org/2000/svg" xmlns:xlink="http://www.w3.org/1999/xlink" x="0px" y="0px"
	 width="50px" height="50px" viewBox="0 0 50 50" enable-background="new 0 0 50 50" xml:space="preserve">
<g id="_x30_1:_飛機_x28__x23_4d4d4d_x29_">
	<g>
		
			<rect x="21.12" y="4.156" transform="matrix(-0.7071 -0.7071 0.7071 -0.7071 29.5657 58.4662)" fill="#4D4D4E" width="11.543" height="37.909"/>
		<path fill="#4D4D4E" d="M44.78,13.383c-3.253,3.252-7.718,4.062-9.97,1.807c-2.256-2.253-1.445-6.717,1.809-9.97
			c3.251-3.253,7.757-4.102,10.01-1.849C48.883,5.625,48.033,10.13,44.78,13.383z"/>
		<polygon fill="#4D4D4E" points="22.557,45.583 17.648,34.624 18.701,33.841 16.946,33.055 16.16,31.299 15.376,32.352 
			4.418,27.443 0.564,34.02 8.777,41.223 15.981,49.436 		"/>
		<polygon fill="#4D4D4E" points="30.314,13.295 7.592,5.129 3.237,12.206 20.063,22.546 		"/>
		<polygon fill="#4D4D4E" points="35.705,18.643 44.871,41.363 37.794,45.721 26.409,26.807 		"/>
	</g>
</g>
</svg>
