<?xml version="1.0" encoding="utf-8"?>
<!-- Generator: Adobe Illustrator 16.0.0, SVG Export Plug-In . SVG Version: 6.00 Build 0)  -->
<!DOCTYPE svg PUBLIC "-//W3C//DTD SVG 1.1//EN" "http://www.w3.org/Graphics/SVG/1.1/DTD/svg11.dtd">
<svg version="1.1" id="Layer_1" xmlns="http://www.w3.org/2000/svg" xmlns:xlink="http://www.w3.org/1999/xlink" x="0px" y="0px"
	 width="50px" height="50px" viewBox="0 0 50 50" enable-background="new 0 0 50 50" xml:space="preserve">
<g id="_x36_:_時尚_x28_白_x29_">
	<g>
		
			<rect x="4.244" y="27.357" fill="#FFFFFF" stroke="#FFFFFF" stroke-width="2" stroke-linecap="round" stroke-linejoin="round" stroke-miterlimit="10" width="8.555" height="18.322"/>
		
			<rect x="4.648" y="22.413" fill="none" stroke="#FFFFFF" stroke-width="2" stroke-linecap="round" stroke-linejoin="round" stroke-miterlimit="10" width="7.747" height="14.424"/>
		<path fill="none" stroke="#FFFFFF" stroke-width="2" stroke-linecap="round" stroke-linejoin="round" stroke-miterlimit="10" d="
			M12.143,22.413h-7.37c0,0-0.373-7.318,0.615-9.842c0.771-1.97,4.836-6.165,6.015-4.409C12.917,10.418,12.143,22.413,12.143,22.413
			z"/>
	</g>
	<g>
		
			<ellipse fill="none" stroke="#FFFFFF" stroke-width="2" stroke-linecap="round" stroke-linejoin="round" stroke-miterlimit="10" cx="35.159" cy="20.529" rx="13.737" ry="12.788"/>
		
			<ellipse fill="none" stroke="#FFFFFF" stroke-width="2" stroke-linecap="round" stroke-linejoin="round" stroke-miterlimit="10" cx="35.159" cy="20.529" rx="8.121" ry="7.56"/>
		<path fill="none" stroke="#FFFFFF" stroke-width="2" stroke-linecap="round" stroke-linejoin="round" stroke-miterlimit="10" d="
			M48.796,37.619c-0.019-0.083-0.038-0.165-0.062-0.246c-0.446-1.659-2.866-2.184-4.285-2.57c-3.008-0.818-6.186-1.061-9.291-1.061
			c-3.355,0-6.852,0.258-10.065,1.289c-1.011,0.324-1.746,0.796-2.563,1.488c-1.172,0.992-1.133,2.28-1.072,3.678
			c0.035,0.789,0.087,1.576,0.157,2.363c0,2.15,6.064,3.896,13.543,3.896c7.48,0,13.545-1.745,13.545-3.896
			C48.895,41.045,49.131,39.145,48.796,37.619z"/>
		<ellipse fill="#FFFFFF" cx="35.191" cy="39.213" rx="9.438" ry="2.258"/>
	</g>
</g>
</svg>
