<?xml version="1.0" encoding="utf-8"?>
<!-- Generator: Adobe Illustrator 16.0.0, SVG Export Plug-In . SVG Version: 6.00 Build 0)  -->
<!DOCTYPE svg PUBLIC "-//W3C//DTD SVG 1.1//EN" "http://www.w3.org/Graphics/SVG/1.1/DTD/svg11.dtd">
<svg version="1.1" id="Layer_1" xmlns="http://www.w3.org/2000/svg" xmlns:xlink="http://www.w3.org/1999/xlink" x="0px" y="0px"
	 width="50px" height="50px" viewBox="0 0 50 50" enable-background="new 0 0 50 50" xml:space="preserve">
<g id="_x30_3:藝文_x28__x23_4d4d4d_x29_">
	<path fill="#4D4D4E" d="M47.961,0.972v3.782h-1.25V0.972h-0.749v3.782h-1.249V0.972h-0.749v3.782h-1.25V0.972h-2.039l1.841,8.606
		l0.823,31.307h0.011c0.053,4.539,0.37,7.965,1.988,7.965c1.617,0,1.936-3.426,1.987-7.965h0.012l1.331-31.204L50,0.972H47.961z"/>
	<path fill="#4D4D4E" d="M36.075,17.44C30.13,7.615,17.953,4.099,8.879,9.59c-9.074,5.489-11.61,17.906-5.664,27.732
		c5.946,9.826,18.122,13.34,27.195,7.852C39.484,39.684,42.021,27.268,36.075,17.44z M26.141,12.461
		c1.342,0,2.433,1.089,2.433,2.433c0,1.343-1.091,2.432-2.433,2.432c-1.345,0-2.434-1.089-2.434-2.432
		C23.707,13.55,24.796,12.461,26.141,12.461z M6.762,24.26c-1.343,0-2.432-1.089-2.432-2.432c0-1.343,1.089-2.432,2.432-2.432
		c1.344,0,2.433,1.089,2.433,2.432C9.195,23.171,8.105,24.26,6.762,24.26z M10.572,17.326c-1.343,0-2.432-1.089-2.432-2.432
		c0-1.344,1.089-2.433,2.432-2.433c1.343,0,2.432,1.089,2.432,2.433C13.004,16.237,11.916,17.326,10.572,17.326z M15.69,12.461
		c0-1.343,1.089-2.432,2.432-2.432c1.343,0,2.432,1.089,2.432,2.432c0,1.344-1.089,2.433-2.432,2.433
		C16.78,14.894,15.69,13.805,15.69,12.461z M23.855,43.816c-2.89,0-5.232-2.342-5.232-5.232s2.342-5.232,5.232-5.232
		s5.232,2.342,5.232,5.232S26.745,43.816,23.855,43.816z M32.158,23.023c-1.342,0-2.432-1.089-2.432-2.432
		c0-1.344,1.09-2.433,2.432-2.433c1.345,0,2.435,1.089,2.435,2.433C34.593,21.934,33.503,23.023,32.158,23.023z"/>
</g>
</svg>
