<?xml version="1.0" encoding="utf-8"?>
<!-- Generator: Adobe Illustrator 16.0.0, SVG Export Plug-In . SVG Version: 6.00 Build 0)  -->
<!DOCTYPE svg PUBLIC "-//W3C//DTD SVG 1.1//EN" "http://www.w3.org/Graphics/SVG/1.1/DTD/svg11.dtd">
<svg version="1.1" xmlns="http://www.w3.org/2000/svg" xmlns:xlink="http://www.w3.org/1999/xlink" x="0px" y="0px" width="140px"
	 height="5px" viewBox="0 0 140 5" enable-background="new 0 0 140 5" xml:space="preserve">
<g id="背景圖" display="none">
	
		<image overflow="visible" width="1920" height="500" xlink:href="raw_1536151900.jpeg"  transform="matrix(1.08 0 0 1.08 -1525.6162 -245.9912)">
	</image>
	
		<image overflow="visible" width="1920" height="500" xlink:href="raw_1536151900.jpeg"  transform="matrix(1.1283 0 0 1.1283 -1448.8467 -258.1045)">
	</image>
	<g id="Layer_9">
		
			<image display="inline" overflow="visible" width="1920" height="1280" xlink:href="person-801829_1920.jpg"  transform="matrix(0.6333 0 0 0.6333 -43.2559 -302.0117)">
		</image>
	</g>
	<g id="Layer_9_copy">
		
			<image display="inline" overflow="visible" width="1920" height="1280" xlink:href="person-801829_1920.jpg"  transform="matrix(0.6333 0 0 0.6333 -19.2559 -302.0117)">
		</image>
	</g>
	<g id="Layer_11">
		
			<image display="inline" overflow="visible" width="1920" height="1280" xlink:href="salad-2068220_1920.jpg"  transform="matrix(0.8248 0 0 0.8248 124.6191 -529.4639)">
		</image>
		
			<image display="inline" overflow="visible" width="1920" height="1280" xlink:href="salad-2068220_1920.jpg"  transform="matrix(-0.8248 0 0 0.8248 124.5938 -529.4639)">
		</image>
	</g>
	<g id="Layer_11_copy" display="inline">
		
			<image overflow="visible" width="1920" height="1280" xlink:href="salad-2068220_1920.jpg"  transform="matrix(0.8346 0 0 0.8346 139.5059 -542.0811)">
		</image>
		
			<image overflow="visible" width="1920" height="1280" xlink:href="salad-2068220_1920.jpg"  transform="matrix(-0.8346 0 0 0.8346 140.4941 -542.0811)">
		</image>
	</g>
</g>
<g id="BANNER旁BTN" display="none" opacity="0.5">
	
		<image display="inline" overflow="visible" width="1920" height="500" xlink:href="BANNER旁BTN.jpg"  transform="matrix(1 0 0 1 -1448.8164 -225.9912)">
	</image>
</g>
<g id="箭頭">
	<g>
		<linearGradient id="SVGID_1_" gradientUnits="userSpaceOnUse" x1="-45.5" y1="2.5" x2="139.4994" y2="2.5">
			<stop  offset="0" style="stop-color:#FFFFFF;stop-opacity:0"/>
			<stop  offset="1" style="stop-color:#FFFFFF"/>
		</linearGradient>
		<path fill="url(#SVGID_1_)" d="M137,5L-43,2.5L137,0c1.381-0.019,2.516,1.084,2.535,2.465c0.019,1.381-1.085,2.516-2.466,2.535
			C137.05,5,137.02,5,137,5z"/>
	</g>
</g>
</svg>
