<?xml version="1.0" encoding="utf-8"?>
<!-- Generator: Adobe Illustrator 16.0.0, SVG Export Plug-In . SVG Version: 6.00 Build 0)  -->
<!DOCTYPE svg PUBLIC "-//W3C//DTD SVG 1.1//EN" "http://www.w3.org/Graphics/SVG/1.1/DTD/svg11.dtd">
<svg version="1.1" id="Layer_1" xmlns="http://www.w3.org/2000/svg" xmlns:xlink="http://www.w3.org/1999/xlink" x="0px" y="0px"
	 width="112.309px" height="112.313px" viewBox="0 0 112.309 112.313" enable-background="new 0 0 112.309 112.313"
	 xml:space="preserve">
<g id="圖層_1">
	<circle fill="#FFFFFF" cx="56.156" cy="55.744" r="55.744"/>
	<circle fill="#A5A5A5" cx="55.744" cy="55.744" r="55.744"/>
	<g display="none">
		<path display="inline" fill="#FFFFFF" d="M74.287,21.758v11.934H67.19c-2.592,0-4.339,0.542-5.242,1.627
			c-0.903,1.084-1.354,2.712-1.354,4.882v8.543h13.243l-1.764,13.38h-11.48v34.308H46.76V62.123H35.234v-13.38H46.76v-9.854
			c0-5.604,1.566-9.951,4.701-13.041c3.134-3.088,7.307-4.634,12.521-4.634C68.411,21.216,71.846,21.397,74.287,21.758z"/>
	</g>
</g>
<path fill="#FFFFFF" stroke="#FFFFFF" stroke-width="4" stroke-miterlimit="10" d="M57.952,27.4
	C43.26,27.4,31.35,39.313,31.35,54.003v34.085h6.651V71.556c4.873,5.538,11.994,9.049,19.951,9.049
	c14.691,0,26.597-11.913,26.597-26.602C84.549,39.313,72.644,27.4,57.952,27.4z M57.952,73.955
	c-11.019,0-19.951-8.935-19.951-19.953c0-11.017,8.932-19.95,19.951-19.95c11.017,0,19.947,8.934,19.947,19.95
	C77.9,65.021,68.969,73.955,57.952,73.955z"/>
</svg>
