<?xml version="1.0" encoding="utf-8"?>
<!-- Generator: Adobe Illustrator 16.0.0, SVG Export Plug-In . SVG Version: 6.00 Build 0)  -->
<!DOCTYPE svg PUBLIC "-//W3C//DTD SVG 1.1//EN" "http://www.w3.org/Graphics/SVG/1.1/DTD/svg11.dtd">
<svg version="1.1" id="Layer_1" xmlns="http://www.w3.org/2000/svg" xmlns:xlink="http://www.w3.org/1999/xlink" x="0px" y="0px"
	 width="32px" height="32px" viewBox="0 0 32 32" enable-background="new 0 0 32 32" xml:space="preserve">
<g id="Layer_11_copy">
	<g>
		<g>
			<path fill="#FFFFFF" d="M12.641,11.344c0,0.55-0.45,1-1,1H5.459c-0.55,0-1-0.45-1-1V5.162c0-0.55,0.45-1,1-1h6.182
				c0.55,0,1,0.45,1,1V11.344z"/>
			<path fill="#00A79C" d="M11.641,4.162c0.55,0,1,0.45,1,1v6.183c0,0.55-0.45,1-1,1H5.459c-0.55,0-1-0.45-1-1V5.162
				c0-0.55,0.45-1,1-1H11.641 M11.641,2.162H5.459c-1.654,0-3,1.346-3,3v6.183c0,1.654,1.346,3,3,3h6.182c1.654,0,3-1.346,3-3V5.162
				C14.641,3.507,13.295,2.162,11.641,2.162L11.641,2.162z"/>
		</g>
		<g>
			<rect x="6.914" y="6.616" fill="#00A79C" width="3.272" height="3.273"/>
		</g>
		<g>
			<path fill="#FFFFFF" d="M27.637,11.344c0,0.55-0.449,1-1,1h-6.183c-0.55,0-1-0.45-1-1V5.162c0-0.55,0.45-1,1-1h6.183
				c0.551,0,1,0.45,1,1V11.344z"/>
			<path fill="#00A79C" d="M26.637,4.162c0.551,0,1,0.45,1,1v6.183c0,0.55-0.449,1-1,1h-6.183c-0.55,0-1-0.45-1-1V5.162
				c0-0.55,0.45-1,1-1H26.637 M26.637,2.162h-6.183c-1.654,0-3,1.346-3,3v6.183c0,1.654,1.346,3,3,3h6.183c1.654,0,3-1.346,3-3
				V5.162C29.637,3.507,28.291,2.162,26.637,2.162L26.637,2.162z"/>
		</g>
		<g>
			<rect x="21.91" y="6.616" fill="#00A79C" width="3.271" height="3.273"/>
		</g>
		<g>
			<path fill="#FFFFFF" d="M25.74,25.047c0,0.275-0.225,0.5-0.5,0.5H21.85c-0.274,0-0.5-0.225-0.5-0.5v-3.393
				c0-0.275,0.226-0.5,0.5-0.5h3.391c0.275,0,0.5,0.225,0.5,0.5V25.047z"/>
			<path fill="#00A79C" d="M25.24,21.154c0.275,0,0.5,0.225,0.5,0.5v3.393c0,0.275-0.225,0.5-0.5,0.5H21.85
				c-0.274,0-0.5-0.225-0.5-0.5v-3.393c0-0.275,0.226-0.5,0.5-0.5H25.24 M25.24,19.154H21.85c-1.379,0-2.5,1.121-2.5,2.5v3.393
				c0,1.379,1.121,2.5,2.5,2.5h3.391c1.379,0,2.5-1.121,2.5-2.5v-3.393C27.74,20.275,26.619,19.154,25.24,19.154L25.24,19.154z"/>
		</g>
		<g>
			<circle fill="#00A79C" cx="23.545" cy="23.35" r="0.633"/>
		</g>
		<g>
			<path fill="#FFFFFF" d="M12.641,26.214c0,0.55-0.45,1-1,1H5.459c-0.55,0-1-0.45-1-1v-6.181c0-0.551,0.45-1,1-1h6.182
				c0.55,0,1,0.449,1,1V26.214z"/>
			<path fill="#00A79C" d="M11.641,19.033c0.55,0,1,0.449,1,1v6.181c0,0.55-0.45,1-1,1H5.459c-0.55,0-1-0.45-1-1v-6.181
				c0-0.551,0.45-1,1-1H11.641 M11.641,17.033H5.459c-1.654,0-3,1.346-3,3v6.181c0,1.654,1.346,3,3,3h6.182c1.654,0,3-1.346,3-3
				v-6.181C14.641,18.379,13.295,17.033,11.641,17.033L11.641,17.033z"/>
		</g>
		<g>
			<rect x="6.914" y="21.484" fill="#00A79C" width="3.272" height="3.274"/>
		</g>
	</g>
</g>
</svg>
